<svg width="668" height="183" viewBox="0 0 668 183" fill="none" xmlns="http://www.w3.org/2000/svg">
<path d="M68.1 64.3V65.5C65.7 66.1 64.1 66.9 63.3 67.8C62.5 68.7 62.1 70.3 62.1 72.4V82.4C62.1 83.3 62.1 84.2 62.2 85.2C62.3 86.2 62.3 87.1 62.4 88.2C59 91 55.1 93 50.8 94.4C46.4 95.8 41.5 96.5 36.1 96.5C25.3 96.5 16.6 93.6 10 87.9C3.50001 82.1 0.200012 74.5 0.200012 65C0.200012 55.7 3.50001 48.2 10.2 42.5C16.9 36.8 25.7 33.9 36.7 33.9C41.5 33.9 46.1 34.5 50.6 35.7C55.1 36.9 59.3 38.7 63.2 41.1L57.8 55.9L56.5 55.6C55.5 49.3 53.5 44.6 50.4 41.6C47.3 38.5 43.1 37 37.9 37C31.1 37 25.9 39.3 22.6 44C19.2 48.7 17.5 55.7 17.5 65.2C17.5 74.9 19 82.1 21.9 86.7C24.8 91.3 29.3 93.6 35.4 93.6C39.8 93.6 42.8 92.5 44.6 90.4C46.3 88.2 47.2 84.2 47.2 78.3C47.2 73.2 46.5 69.9 45.1 68.4C43.7 66.9 40.9 66 36.6 65.7V64.5C39.1 64.6 41.7 64.7 44.4 64.8C47 64.9 49.7 64.9 52.4 64.9C54.8 64.9 57.3 64.9 60 64.8C62.4 64.5 65.2 64.4 68.1 64.3Z" fill="#EC1E24"/>
<path d="M74.5 59.4C74.5 55.6 74.2 53.1 73.7 52.1C73.1 51 72.1 50.4 70.5 50.2V49.1C73.3 48.7 76.2 48.2 79 47.7C81.8 47.2 84.6 46.6 87.4 45.9V55.9C88.8 52.6 90.4 50.1 92.2 48.4C94 46.7 96 45.9 98.2 45.9C98.8 45.9 99.2 45.9 99.6 45.9C99.9 45.9 100.3 46 100.6 46L96.6 63.3C96.1 61.8 95.5 60.7 94.9 59.9C94.2 59.1 93.4 58.8 92.5 58.8C90.7 58.8 89.4 60.4 88.7 63.5C87.9 66.6 87.5 71.8 87.5 79.1C87.5 84.1 87.8 87.6 88.5 89.8C89.2 91.9 90.3 93.3 91.9 93.8V94.8C90.2 94.7 88.4 94.6 86.6 94.6C84.8 94.6 83.1 94.5 81.2 94.5C79.4 94.5 77.5 94.5 75.7 94.6C73.8 94.6 71.9 94.7 69.9 94.8V93.8C71.6 93.1 72.9 91.6 73.5 89.5C74.2 87.4 74.5 82.8 74.5 75.8V73.3V59.4V59.4Z" fill="#EC1E24"/>
<path d="M128 60.4C128 56.7 127.4 53.8 126.2 51.7C125 49.7 123.4 48.6 121.2 48.6C118.9 48.6 116.8 49.9 114.9 52.6C113 55.2 111.2 59.2 109.6 64.6H108.1L105.1 50.5C107.9 49 110.9 47.9 113.9 47.1C116.9 46.4 120 46 123.1 46C129.4 46 133.9 47.6 136.6 50.9C139.3 54.1 140.6 59.6 140.6 67.4V85C140.6 87.2 140.8 88.9 141.3 90.1C141.7 91.3 142.5 92.3 143.6 93.3V94.6C142.1 94.5 140.8 94.5 139.8 94.5C138.8 94.5 137.9 94.5 137 94.5C136.2 94.5 135.4 94.5 134.4 94.5C133.5 94.5 132 94.6 130.1 94.7L128.9 89C127.5 91.6 125.8 93.5 123.9 94.7C122 95.9 119.6 96.5 116.9 96.5C112.5 96.5 108.8 95.1 106.1 92.3C103.3 89.5 101.9 85.9 101.9 81.4C101.9 76.2 103.9 72.3 107.8 69.6C111.7 66.9 117.4 65.6 124.9 65.6C125.7 65.6 126.4 65.6 126.8 65.6C127.2 65.6 127.6 65.6 128 65.6V60.4V60.4ZM128 68.2C123.8 68.2 120.7 69.4 118.7 71.7C116.6 74 115.6 77.6 115.6 82.3C115.6 85.2 116.1 87.5 117.1 89.3C118.1 91 119.5 91.9 121.1 91.9C123.2 91.9 124.9 90.5 126.1 87.7C127.3 84.9 127.9 80.9 127.9 75.9V68.2H128Z" fill="#EC1E24"/>
<path d="M163.2 91.6V93.7C163.2 101 163.6 105.6 164.5 107.6C165.4 109.6 166.9 111 169.3 111.6V112.6C167.3 112.5 165.3 112.4 163.4 112.4C161.4 112.4 159.5 112.3 157.5 112.3C155.6 112.3 153.6 112.3 151.7 112.4C149.7 112.4 147.8 112.5 145.8 112.6V111.6C147.5 110.9 148.8 109.5 149.4 107.3C150.1 105.2 150.4 100.6 150.4 93.7V91.1V60.7C150.4 56.8 150.1 54.4 149.5 53.3C148.9 52.2 147.8 51.6 146.3 51.4V50.4C149.2 50 152.1 49.5 154.8 48.9C157.6 48.4 160.3 47.8 163 47.1V54.2C164.3 51.4 166 49.4 168.1 48C170.2 46.6 172.7 45.9 175.6 45.9C181.1 45.9 185.5 48.2 189.1 52.7C192.6 57.3 194.4 63.1 194.4 70.4C194.4 77.6 192.6 83.6 189 88.4C185.4 93.2 180.9 95.6 175.7 95.6C173.1 95.6 170.7 94.9 168.6 93.6C166.5 92.3 164.7 90.4 163.3 87.8V91.6H163.2ZM172 90.9C174.7 90.9 176.9 89.2 178.5 85.8C180.1 82.4 180.9 77.8 180.9 71.9C180.9 64.8 180.2 59.5 178.7 55.9C177.2 52.3 175 50.5 172.1 50.5C169.2 50.5 167 52.2 165.5 55.7C164 59.2 163.2 64.2 163.2 70.8C163.2 77.4 164 82.3 165.5 85.8C166.9 89.2 169.1 90.9 172 90.9Z" fill="#EC1E24"/>
<path d="M201.8 41.8C201.8 37.9 201.5 35.5 200.9 34.4C200.3 33.3 199.2 32.7 197.7 32.5V31.5C200.5 31.1 203.4 30.6 206.2 30C209 29.5 211.9 28.9 214.8 28.2V54.2C216 51.4 217.5 49.3 219.4 48C221.3 46.7 223.5 46 226.3 46C231.2 46 234.8 47.8 237.1 51.4C239.4 55 240.6 60.6 240.6 68.3V73.4C240.6 81.6 240.9 86.9 241.6 89.4C242.3 91.9 243.4 93.4 245.1 93.9V94.9C243.4 94.8 241.6 94.7 239.9 94.7C238.1 94.7 236.4 94.6 234.7 94.6C233 94.6 231.3 94.6 229.5 94.7C227.8 94.7 226 94.8 224.3 94.9V93.9C225.6 93.2 226.6 91.9 227.1 89.9C227.6 87.9 227.9 84.2 227.9 78.6V73.4V69.1C227.9 62.7 227.4 58.2 226.5 55.4C225.6 52.7 224.1 51.3 222 51.3C219.8 51.3 218 52.9 216.8 56C215.6 59.1 214.9 63.5 214.9 69.1V73.4C214.9 81.9 215.2 87.3 215.7 89.6C216.2 91.9 217.2 93.3 218.6 93.9V94.9C217 94.8 215.4 94.7 213.7 94.7C212 94.7 210.3 94.6 208.5 94.6C206.8 94.6 204.9 94.6 203.1 94.7C201.2 94.7 199.3 94.8 197.4 94.9V93.9C199.1 93.2 200.4 91.7 201 89.6C201.7 87.5 202 82.9 202 75.9V73.4V41.8H201.8Z" fill="#EC1E24"/>
<path d="M250.3 59.4C250.3 55.6 250 53.1 249.4 52.1C248.8 51 247.7 50.4 246.2 50.3V49.2C248.9 48.8 251.7 48.3 254.5 47.8C257.3 47.3 260.2 46.7 263.2 46V76.1C263.2 83.1 263.5 87.7 264.1 89.9C264.7 92 265.8 93.4 267.4 93.9V94.9C265.7 94.8 263.9 94.7 262.2 94.7C260.4 94.7 258.6 94.6 256.8 94.6C255.1 94.6 253.2 94.6 251.4 94.7C249.5 94.7 247.6 94.8 245.7 94.9V93.9C247.4 93.2 248.7 91.7 249.3 89.6C250 87.5 250.3 82.9 250.3 75.9V73.4V59.4V59.4ZM250.3 35.3C250.3 33.3 250.9 31.6 252.1 30.2C253.3 28.8 254.8 28.2 256.6 28.2C258.4 28.2 260 28.9 261.2 30.3C262.5 31.7 263.1 33.4 263.1 35.3C263.1 37.3 262.5 39 261.2 40.5C259.9 41.9 258.4 42.6 256.6 42.6C254.8 42.6 253.3 41.9 252.1 40.5C250.9 39.1 250.3 37.4 250.3 35.3Z" fill="#EC1E24"/>
<path d="M303.5 65.8C302.5 59.8 301.2 55.5 299.7 53C298.2 50.5 296.3 49.2 293.9 49.2C290.9 49.2 288.5 51.2 286.5 55.3C284.5 59.3 283.5 64.6 283.5 71C283.5 77.8 284.4 82.9 286.3 86.3C288.2 89.7 291 91.5 294.7 91.5C297 91.5 299 90.6 300.9 88.9C302.8 87.2 304.3 84.6 305.6 81.3L308 82.4C306.3 87 304 90.5 301.1 93C298.2 95.4 294.7 96.7 290.8 96.7C284.9 96.7 280 94.3 276 89.4C272 84.5 270 78.4 270 70.9C270 63.6 272 57.7 276.1 53.2C280.2 48.6 285.5 46.4 292.1 46.4C295.1 46.4 297.9 46.9 300.5 47.8C303.2 48.7 305.6 50.2 307.9 52L304.8 66.3L303.5 65.8Z" fill="#EC1E24"/>
<path d="M335.4 94.9V93.7C337.9 93.2 339.6 91.8 340.5 89.5C341.4 87.3 341.9 82.1 341.9 74V43.8C341.9 41.7 341.5 40.1 340.7 39.1C339.9 38 338.5 37.2 336.5 36.7V35.5C336.6 35.5 336.8 35.5 337 35.5C343.3 35.6 348 35.7 351.1 35.7H388.8L393.9 50.9L392.6 51.3C388.8 47.1 384.5 43.9 379.7 41.9C374.9 39.9 369.2 38.9 362.8 38.9C361.3 38.9 360.2 38.9 359.5 38.9C358.8 38.9 358.1 39 357.5 39.1V61.9C358.5 62 359.5 62 360.4 62C361.3 62 362.3 62 363.3 62C368.6 62 373 61.1 376.5 59.4C380 57.7 382.2 55.3 383.2 52.2H384.4V74.8H383.2C382.2 71.6 379.9 69.1 376.5 67.4C373.1 65.7 368.6 64.9 363.1 64.9C361.6 64.9 360.4 64.9 359.7 64.9C358.9 64.9 358.2 65 357.5 65V73.2C357.5 81.5 358.2 86.6 359.5 88.5C360.8 90.5 363.7 91.4 368.1 91.4C373.5 91.4 378.6 90 383.3 87.3C388 84.6 392.4 80.4 396.6 74.9L398.2 75.4L392.4 94.6H354.9C354.2 94.6 353.2 94.6 351.9 94.6C350.5 94.6 349.5 94.6 348.8 94.6C346.4 94.6 344.1 94.6 341.9 94.7C339.7 94.7 337.5 94.8 335.4 94.9Z" fill="#EC1E24"/>
<path d="M403.8 59.4C403.8 55.6 403.5 53.1 403 52.1C402.4 51 401.4 50.4 399.8 50.2V49.1C402.6 48.7 405.5 48.2 408.3 47.7C411.1 47.2 413.9 46.6 416.7 45.9V55.9C418.1 52.6 419.7 50.1 421.5 48.4C423.3 46.7 425.3 45.9 427.5 45.9C428.1 45.9 428.5 45.9 428.9 45.9C429.2 45.9 429.6 46 429.9 46L425.9 63.3C425.4 61.8 424.8 60.7 424.2 59.9C423.5 59.1 422.7 58.8 421.8 58.8C420 58.8 418.7 60.4 418 63.5C417.2 66.6 416.8 71.8 416.8 79.1C416.8 84.1 417.1 87.6 417.8 89.8C418.5 91.9 419.6 93.3 421.2 93.8V94.8C419.5 94.7 417.7 94.6 415.9 94.6C414.1 94.6 412.4 94.5 410.5 94.5C408.7 94.5 406.8 94.5 405 94.6C403.1 94.6 401.2 94.7 399.2 94.8V93.8C400.9 93.1 402.2 91.6 402.8 89.5C403.5 87.4 403.8 82.8 403.8 75.8V73.3V59.4Z" fill="#EC1E24"/>
<path d="M457.3 60.4C457.3 56.7 456.7 53.8 455.5 51.7C454.3 49.7 452.7 48.6 450.5 48.6C448.2 48.6 446.1 49.9 444.2 52.6C442.3 55.2 440.5 59.2 438.9 64.6H437.4L434.4 50.5C437.2 49 440.2 47.9 443.2 47.1C446.2 46.4 449.3 46 452.4 46C458.7 46 463.2 47.6 465.9 50.9C468.6 54.1 469.9 59.6 469.9 67.4V85C469.9 87.2 470.1 88.9 470.6 90.1C471 91.3 471.8 92.3 472.9 93.3V94.6C471.4 94.5 470.1 94.5 469.1 94.5C468.1 94.5 467.2 94.5 466.3 94.5C465.5 94.5 464.7 94.5 463.7 94.5C462.8 94.5 461.3 94.6 459.4 94.7L458.2 89C456.8 91.6 455.1 93.5 453.2 94.7C451.3 95.9 448.9 96.5 446.2 96.5C441.8 96.5 438.1 95.1 435.4 92.3C432.6 89.5 431.2 85.9 431.2 81.4C431.2 76.2 433.2 72.3 437.1 69.6C441 66.9 446.7 65.6 454.2 65.6C455 65.6 455.7 65.6 456.1 65.6C456.5 65.6 456.9 65.6 457.3 65.6V60.4V60.4ZM457.3 68.2C453.1 68.2 450 69.4 448 71.7C445.9 74 444.9 77.6 444.9 82.3C444.9 85.2 445.4 87.5 446.4 89.3C447.4 91 448.8 91.9 450.4 91.9C452.5 91.9 454.2 90.5 455.4 87.7C456.6 84.9 457.2 80.9 457.2 75.9V68.2H457.3Z" fill="#EC1E24"/>
<path d="M129.74 154.054V138.406C129.74 137.67 129.692 136.998 129.596 136.39C129.5 135.75 129.372 135.222 129.212 134.806C129.02 134.358 128.764 134.006 128.444 133.75C128.124 133.462 127.74 133.254 127.292 133.126V132.262C127.516 132.326 127.756 132.374 128.012 132.406C128.268 132.406 128.54 132.406 128.828 132.406C128.988 132.406 129.132 132.406 129.26 132.406C129.42 132.406 129.564 132.406 129.692 132.406C129.852 132.438 129.996 132.454 130.124 132.454C130.284 132.454 130.444 132.454 130.604 132.454C130.636 132.454 130.668 132.454 130.7 132.454C130.732 132.454 130.764 132.454 130.796 132.454C130.828 132.454 130.86 132.454 130.892 132.454C130.924 132.454 130.956 132.454 130.988 132.454C131.244 132.486 131.5 132.518 131.756 132.55C132.044 132.55 132.316 132.55 132.572 132.55C132.828 132.55 133.084 132.55 133.34 132.55C133.596 132.55 133.836 132.55 134.06 132.55C135.468 132.55 136.78 132.55 137.996 132.55C139.212 132.55 140.348 132.55 141.404 132.55C142.428 132.55 143.404 132.55 144.332 132.55C145.26 132.518 146.124 132.486 146.924 132.454C147.34 132.454 147.74 132.454 148.124 132.454C148.508 132.454 148.876 132.438 149.228 132.406C149.58 132.406 149.916 132.406 150.236 132.406C150.588 132.406 150.924 132.406 151.244 132.406C151.564 132.406 151.868 132.406 152.156 132.406C152.476 132.406 152.78 132.39 153.068 132.358C153.388 132.358 153.692 132.358 153.98 132.358C154.268 132.358 154.556 132.358 154.844 132.358L157.1 140.71H156.044C155.148 139.686 154.188 138.774 153.164 137.974C152.172 137.142 151.1 136.438 149.948 135.862C148.796 135.286 147.628 134.854 146.444 134.566C145.26 134.246 144.06 134.086 142.844 134.086L138.188 133.99V146.134H141.116C141.18 146.166 141.228 146.198 141.26 146.23C141.292 146.23 141.34 146.23 141.404 146.23C141.436 146.23 141.468 146.23 141.5 146.23C141.564 146.23 141.612 146.23 141.644 146.23C141.74 146.23 141.836 146.23 141.932 146.23C142.028 146.23 142.124 146.23 142.22 146.23C143.148 146.166 144.044 146.038 144.908 145.846C145.804 145.654 146.668 145.382 147.5 145.03C148.332 144.678 149.036 144.166 149.612 143.494C150.22 142.822 150.684 141.99 151.004 140.998L151.916 140.902V152.854H151.148C150.924 152.022 150.508 151.302 149.9 150.694C149.324 150.054 148.572 149.526 147.644 149.11C146.684 148.694 145.66 148.39 144.572 148.198C143.484 147.974 142.332 147.862 141.116 147.862L138.188 147.766V154.054C138.188 155.174 138.22 156.214 138.284 157.174C138.38 158.134 138.524 159.03 138.716 159.862C138.876 160.694 139.212 161.334 139.724 161.782C140.268 162.198 140.988 162.438 141.884 162.502V163.366C141.756 163.366 141.628 163.366 141.5 163.366C141.404 163.366 141.308 163.366 141.212 163.366C141.084 163.334 140.956 163.318 140.828 163.318C140.732 163.318 140.636 163.318 140.54 163.318C140.316 163.318 140.092 163.318 139.868 163.318C139.644 163.318 139.436 163.318 139.244 163.318C139.18 163.318 139.116 163.318 139.052 163.318C138.988 163.318 138.94 163.318 138.908 163.318C138.844 163.286 138.78 163.27 138.716 163.27C138.684 163.27 138.636 163.27 138.572 163.27C138.444 163.27 138.316 163.27 138.188 163.27C138.092 163.27 137.996 163.27 137.9 163.27C137.58 163.238 137.244 163.206 136.892 163.174C136.572 163.174 136.236 163.174 135.884 163.174C135.564 163.174 135.244 163.174 134.924 163.174C134.604 163.174 134.284 163.174 133.964 163.174C133.804 163.174 133.644 163.174 133.484 163.174C133.324 163.174 133.164 163.174 133.004 163.174C132.812 163.174 132.636 163.174 132.476 163.174C132.316 163.174 132.156 163.174 131.996 163.174C131.836 163.174 131.676 163.174 131.516 163.174C131.356 163.174 131.196 163.19 131.036 163.222C130.844 163.222 130.668 163.222 130.508 163.222C130.348 163.254 130.188 163.27 130.028 163.27C129.9 163.27 129.772 163.27 129.644 163.27C129.548 163.27 129.452 163.27 129.356 163.27C129.292 163.27 129.228 163.27 129.164 163.27C129.1 163.27 129.052 163.286 129.02 163.318C128.956 163.318 128.892 163.318 128.828 163.318C128.796 163.318 128.748 163.318 128.684 163.318C128.46 163.318 128.236 163.318 128.012 163.318C127.82 163.318 127.612 163.318 127.388 163.318C127.26 163.318 127.132 163.318 127.004 163.318C126.908 163.318 126.812 163.334 126.716 163.366C126.588 163.366 126.46 163.366 126.332 163.366C126.236 163.366 126.14 163.366 126.044 163.366V162.406C126.908 162.406 127.596 162.198 128.108 161.782C128.652 161.334 129.02 160.694 129.212 159.862C129.372 159.03 129.5 158.15 129.596 157.222C129.692 156.262 129.74 155.238 129.74 154.15V154.054ZM176.459 150.886H166.283L164.459 154.63C164.299 155.046 164.139 155.446 163.979 155.83C163.851 156.182 163.739 156.534 163.643 156.886C163.515 157.238 163.419 157.558 163.355 157.846C163.323 158.134 163.307 158.406 163.307 158.662C163.307 159.27 163.387 159.798 163.547 160.246C163.739 160.662 163.995 161.014 164.315 161.302C164.667 161.59 165.051 161.846 165.467 162.07C165.915 162.262 166.411 162.406 166.955 162.502V163.366C166.859 163.366 166.763 163.366 166.667 163.366C166.571 163.366 166.491 163.366 166.427 163.366C166.331 163.334 166.235 163.318 166.139 163.318C166.043 163.318 165.947 163.318 165.851 163.318C165.659 163.318 165.467 163.318 165.275 163.318C165.115 163.318 164.955 163.318 164.795 163.318C164.763 163.318 164.715 163.318 164.651 163.318C164.619 163.318 164.587 163.318 164.555 163.318C164.491 163.286 164.443 163.27 164.411 163.27C164.379 163.27 164.347 163.27 164.315 163.27C164.251 163.27 164.187 163.27 164.123 163.27C164.059 163.27 163.995 163.27 163.931 163.27C163.675 163.238 163.419 163.206 163.163 163.174C162.907 163.174 162.651 163.174 162.395 163.174C162.171 163.174 161.931 163.174 161.675 163.174C161.451 163.174 161.227 163.174 161.003 163.174C160.875 163.174 160.747 163.174 160.619 163.174C160.523 163.174 160.427 163.174 160.331 163.174C160.203 163.174 160.075 163.174 159.947 163.174C159.851 163.174 159.739 163.174 159.611 163.174C159.483 163.174 159.355 163.174 159.227 163.174C159.131 163.174 159.035 163.19 158.939 163.222C158.811 163.222 158.683 163.222 158.555 163.222C158.459 163.254 158.347 163.27 158.219 163.27C158.123 163.27 158.027 163.27 157.931 163.27C157.835 163.27 157.755 163.286 157.691 163.318C157.595 163.318 157.499 163.318 157.403 163.318C157.339 163.318 157.275 163.318 157.211 163.318C157.051 163.318 156.891 163.318 156.731 163.318C156.571 163.318 156.411 163.334 156.251 163.366C156.155 163.366 156.059 163.366 155.963 163.366C155.867 163.366 155.787 163.366 155.723 163.366C155.627 163.366 155.531 163.366 155.435 163.366C155.371 163.366 155.307 163.366 155.243 163.366V162.502C155.499 162.502 155.803 162.406 156.155 162.214C156.507 161.99 156.923 161.686 157.403 161.302C157.851 160.918 158.315 160.47 158.795 159.958C159.275 159.414 159.771 158.79 160.283 158.086C160.347 157.99 160.411 157.878 160.475 157.75C160.571 157.622 160.667 157.51 160.763 157.414C160.827 157.286 160.891 157.158 160.955 157.03C161.051 156.902 161.131 156.774 161.195 156.646C161.355 156.39 161.515 156.134 161.675 155.878C161.835 155.59 161.995 155.302 162.155 155.014L173.627 133.174C173.627 133.174 173.643 133.158 173.675 133.126C173.707 133.062 173.739 133.014 173.771 132.982C173.803 132.918 173.835 132.854 173.867 132.79C173.899 132.726 173.931 132.662 173.963 132.598C173.963 132.566 173.963 132.534 173.963 132.502C173.995 132.47 174.027 132.438 174.059 132.406C174.091 132.374 174.107 132.342 174.107 132.31C174.139 132.278 174.171 132.246 174.203 132.214C174.267 132.15 174.315 132.086 174.347 132.022C174.411 131.926 174.459 131.846 174.491 131.782C174.555 131.718 174.603 131.67 174.635 131.638C174.699 131.606 174.747 131.59 174.779 131.59L174.875 131.494C174.907 131.558 174.939 131.606 174.971 131.638C175.035 131.67 175.099 131.718 175.163 131.782C175.227 131.846 175.291 131.926 175.355 132.022C175.419 132.086 175.483 132.15 175.547 132.214C175.547 132.246 175.547 132.278 175.547 132.31C175.547 132.31 175.563 132.31 175.595 132.31C175.595 132.342 175.595 132.374 175.595 132.406C175.627 132.406 175.643 132.422 175.643 132.454C175.675 132.486 175.707 132.518 175.739 132.55C175.771 132.582 175.803 132.614 175.835 132.646C175.867 132.678 175.883 132.71 175.883 132.742C175.915 132.774 175.947 132.806 175.979 132.838C175.979 132.902 175.979 132.95 175.979 132.982C176.011 133.014 176.043 133.046 176.075 133.078C176.107 133.142 176.139 133.206 176.171 133.27C176.203 133.302 176.235 133.35 176.267 133.414L188.747 156.742C189.227 157.67 189.675 158.47 190.091 159.142C190.507 159.782 190.891 160.294 191.243 160.678C191.595 161.062 191.931 161.382 192.251 161.638C192.571 161.894 192.891 162.086 193.211 162.214C193.243 162.214 193.275 162.23 193.307 162.262C193.339 162.262 193.371 162.262 193.403 162.262C193.403 162.294 193.419 162.31 193.451 162.31C193.483 162.31 193.515 162.31 193.547 162.31C193.579 162.31 193.595 162.31 193.595 162.31C193.627 162.31 193.659 162.31 193.691 162.31C193.723 162.342 193.739 162.358 193.739 162.358C193.771 162.358 193.803 162.358 193.835 162.358V163.366C193.707 163.366 193.563 163.366 193.403 163.366C193.275 163.366 193.147 163.366 193.019 163.366C192.859 163.334 192.715 163.318 192.587 163.318C192.459 163.318 192.315 163.318 192.155 163.318C191.867 163.318 191.579 163.318 191.291 163.318C191.003 163.318 190.715 163.318 190.427 163.318C190.363 163.286 190.299 163.27 190.235 163.27C190.171 163.27 190.107 163.27 190.043 163.27C189.979 163.27 189.915 163.27 189.851 163.27C189.819 163.27 189.771 163.27 189.707 163.27C189.355 163.238 189.003 163.206 188.651 163.174C188.299 163.174 187.947 163.174 187.595 163.174C187.275 163.174 186.939 163.174 186.587 163.174C186.267 163.174 185.963 163.174 185.675 163.174C185.355 163.174 185.035 163.174 184.715 163.174C184.427 163.174 184.123 163.174 183.803 163.174C183.483 163.174 183.163 163.174 182.843 163.174C182.523 163.206 182.203 163.238 181.883 163.27C181.755 163.27 181.627 163.27 181.499 163.27C181.371 163.27 181.243 163.286 181.115 163.318C180.987 163.318 180.859 163.318 180.731 163.318C180.603 163.318 180.475 163.318 180.347 163.318C180.219 163.318 180.091 163.318 179.963 163.318C179.835 163.318 179.723 163.334 179.627 163.366C179.499 163.366 179.371 163.366 179.243 163.366C179.115 163.366 178.987 163.366 178.859 163.366C178.827 163.366 178.779 163.366 178.715 163.366C178.683 163.366 178.651 163.366 178.619 163.366C178.555 163.366 178.507 163.366 178.475 163.366C178.443 163.366 178.395 163.366 178.331 163.366C178.235 163.366 178.139 163.366 178.043 163.366C177.979 163.366 177.915 163.366 177.851 163.366V162.406C177.883 162.47 177.915 162.502 177.947 162.502C177.979 162.502 178.011 162.502 178.043 162.502C178.075 162.502 178.107 162.502 178.139 162.502C178.171 162.47 178.203 162.438 178.235 162.406C178.555 162.342 178.843 162.262 179.099 162.166C179.355 162.07 179.595 161.958 179.819 161.83C180.011 161.67 180.155 161.462 180.251 161.206C180.379 160.918 180.443 160.566 180.443 160.15C180.443 159.894 180.411 159.622 180.347 159.334C180.283 159.046 180.187 158.726 180.059 158.374C179.931 158.022 179.787 157.654 179.627 157.27C179.467 156.886 179.307 156.502 179.147 156.118C179.115 156.054 179.083 156.006 179.051 155.974C179.019 155.91 178.987 155.862 178.955 155.83C178.955 155.798 178.939 155.766 178.907 155.734C178.907 155.702 178.907 155.67 178.907 155.638C178.875 155.638 178.843 155.622 178.811 155.59C178.811 155.558 178.811 155.526 178.811 155.494L176.459 150.886ZM171.323 140.566L167.051 149.254H175.691L171.323 140.566ZM231.631 169.03L231.871 169.798C231.615 169.894 231.343 169.99 231.055 170.086C230.767 170.182 230.479 170.294 230.191 170.422C229.871 170.55 229.551 170.662 229.231 170.758C228.911 170.886 228.575 171.014 228.223 171.142C228.127 171.174 228.031 171.206 227.935 171.238C227.871 171.27 227.807 171.302 227.743 171.334C227.647 171.334 227.551 171.35 227.455 171.382C227.391 171.414 227.327 171.446 227.263 171.478C227.103 171.542 226.943 171.606 226.783 171.67C226.623 171.734 226.463 171.798 226.303 171.862C225.791 172.022 225.295 172.166 224.815 172.294C224.335 172.422 223.871 172.55 223.423 172.678C222.943 172.774 222.495 172.854 222.079 172.918C221.695 172.982 221.327 173.014 220.975 173.014C220.591 173.014 220.159 172.934 219.679 172.774C219.231 172.614 218.719 172.39 218.143 172.102C217.567 171.782 216.991 171.446 216.415 171.094C215.839 170.774 215.231 170.438 214.591 170.086C214.559 170.054 214.527 170.022 214.495 169.99C214.463 169.958 214.431 169.926 214.399 169.894C214.399 169.894 214.383 169.894 214.351 169.894C213.743 169.542 213.151 169.206 212.575 168.886C211.999 168.566 211.439 168.262 210.895 167.974C210.319 167.686 209.791 167.462 209.311 167.302C208.863 167.174 208.447 167.11 208.063 167.11C207.743 167.11 207.423 167.142 207.103 167.206C206.783 167.302 206.479 167.43 206.191 167.59C205.903 167.75 205.631 167.926 205.375 168.118C205.119 168.31 204.879 168.518 204.655 168.742L204.223 166.726C204.351 166.662 204.479 166.598 204.607 166.534C204.735 166.47 204.863 166.406 204.991 166.342C205.055 166.31 205.119 166.278 205.183 166.246C205.279 166.214 205.359 166.198 205.423 166.198C205.487 166.166 205.551 166.134 205.615 166.102C205.711 166.07 205.791 166.038 205.855 166.006C206.015 165.942 206.175 165.862 206.335 165.766C206.527 165.702 206.719 165.638 206.911 165.574C207.103 165.478 207.295 165.382 207.487 165.286C207.679 165.222 207.871 165.158 208.063 165.094C208.479 164.934 208.927 164.758 209.407 164.566C209.887 164.406 210.383 164.246 210.895 164.086V163.942C208.751 163.558 206.783 162.934 204.991 162.07C203.199 161.206 201.599 160.102 200.191 158.758C198.751 157.414 197.679 155.846 196.975 154.054C196.271 152.23 195.919 150.182 195.919 147.91C195.919 145.254 196.383 142.918 197.311 140.902C198.239 138.854 199.631 137.142 201.487 135.766C203.375 134.358 205.359 133.318 207.439 132.646C209.519 131.942 211.727 131.59 214.063 131.59C216.367 131.59 218.559 131.942 220.639 132.646C222.751 133.318 224.735 134.358 226.591 135.766C228.479 137.142 229.887 138.854 230.815 140.902C231.743 142.918 232.207 145.254 232.207 147.91C232.207 150.278 231.807 152.406 231.007 154.294C230.239 156.15 229.071 157.766 227.503 159.142C225.935 160.518 224.143 161.606 222.127 162.406C220.143 163.206 217.951 163.75 215.551 164.038V164.182C216.223 164.31 216.895 164.454 217.567 164.614C218.239 164.774 218.895 164.95 219.535 165.142C220.175 165.334 220.783 165.542 221.359 165.766C221.967 165.99 222.559 166.214 223.135 166.438C223.999 166.79 224.815 167.11 225.583 167.398C226.351 167.686 227.071 167.974 227.743 168.262C228.415 168.55 229.007 168.758 229.519 168.886C230.063 169.046 230.543 169.126 230.959 169.126C230.991 169.126 231.023 169.126 231.055 169.126C231.087 169.126 231.119 169.126 231.151 169.126C231.151 169.126 231.167 169.126 231.199 169.126C231.231 169.126 231.263 169.126 231.295 169.126C231.327 169.126 231.359 169.126 231.391 169.126C231.423 169.126 231.455 169.11 231.487 169.078C231.487 169.078 231.503 169.062 231.535 169.03C231.567 169.03 231.599 169.03 231.631 169.03ZM205.327 147.814C205.327 150.406 205.519 152.646 205.903 154.534C206.319 156.39 206.927 157.926 207.727 159.142C208.527 160.326 209.455 161.222 210.511 161.83C211.567 162.406 212.751 162.694 214.063 162.694C215.375 162.694 216.559 162.406 217.615 161.83C218.671 161.222 219.599 160.326 220.399 159.142C221.199 157.926 221.791 156.39 222.175 154.534C222.591 152.646 222.799 150.438 222.799 147.91C222.799 145.35 222.591 143.142 222.175 141.286C221.791 139.43 221.199 137.91 220.399 136.726C219.599 135.51 218.671 134.614 217.615 134.038C216.559 133.43 215.375 133.126 214.063 133.126C212.751 133.126 211.567 133.43 210.511 134.038C209.455 134.614 208.527 135.51 207.727 136.726C206.927 137.91 206.319 139.43 205.903 141.286C205.519 143.142 205.327 145.35 205.327 147.91V147.814ZM285.2 134.662L282.272 144.262L281.504 143.974C281.312 142.598 280.976 141.286 280.496 140.038C280.016 138.758 279.392 137.574 278.624 136.486C277.856 135.366 276.864 134.534 275.648 133.99C274.464 133.414 273.072 133.126 271.472 133.126C270.032 133.126 268.752 133.398 267.632 133.942C266.544 134.454 265.632 135.222 264.896 136.246C264.128 137.302 263.488 138.406 262.976 139.558C262.496 140.678 262.128 141.862 261.872 143.11C261.776 143.526 261.696 143.942 261.632 144.358C261.6 144.774 261.552 145.19 261.488 145.606C261.456 146.022 261.424 146.422 261.392 146.806C261.392 147.19 261.392 147.558 261.392 147.91C261.392 148.294 261.392 148.678 261.392 149.062C261.424 149.446 261.456 149.846 261.488 150.262C261.552 150.678 261.6 151.094 261.632 151.51C261.696 151.894 261.776 152.294 261.872 152.71C262.128 153.958 262.496 155.158 262.976 156.31C263.488 157.462 264.128 158.55 264.896 159.574C265.632 160.63 266.544 161.414 267.632 161.926C268.752 162.438 270.032 162.694 271.472 162.694C273.104 162.694 274.56 162.47 275.84 162.022C277.12 161.542 278.208 160.838 279.104 159.91C280.032 158.982 280.784 157.878 281.36 156.598C281.936 155.318 282.336 153.894 282.56 152.326L283.232 151.99L285.536 160.294C285.248 160.486 284.96 160.662 284.672 160.822C284.416 160.95 284.16 161.078 283.904 161.206C283.648 161.334 283.392 161.462 283.136 161.59C282.88 161.686 282.624 161.782 282.368 161.878C281.44 162.262 280.496 162.598 279.536 162.886C278.576 163.142 277.616 163.366 276.656 163.558C275.696 163.75 274.672 163.894 273.584 163.99C272.496 164.086 271.344 164.134 270.128 164.134C267.792 164.134 265.584 163.798 263.504 163.126C261.424 162.454 259.44 161.43 257.552 160.054C255.696 158.678 254.304 156.982 253.376 154.966C252.448 152.95 251.984 150.598 251.984 147.91C251.984 145.254 252.448 142.918 253.376 140.902C254.304 138.854 255.696 137.142 257.552 135.766C259.44 134.358 261.424 133.318 263.504 132.646C265.584 131.942 267.792 131.59 270.128 131.59C271.632 131.59 273.072 131.67 274.448 131.83C275.824 131.958 277.152 132.15 278.432 132.406C279.712 132.694 280.912 133.03 282.032 133.414C283.152 133.798 284.208 134.246 285.2 134.758V134.662ZM298.223 128.374V142.87V142.966H298.319C298.767 142.102 299.263 141.334 299.807 140.662C300.351 139.99 300.975 139.43 301.679 138.982C302.351 138.534 303.119 138.198 303.983 137.974C304.847 137.718 305.791 137.59 306.815 137.59C308.095 137.59 309.247 137.798 310.271 138.214C311.327 138.598 312.255 139.174 313.055 139.942C313.887 140.71 314.495 141.606 314.879 142.63C315.295 143.654 315.503 144.806 315.503 146.086V158.71C315.503 159.318 315.567 159.846 315.695 160.294C315.823 160.742 316.015 161.126 316.271 161.446C316.527 161.766 316.847 162.038 317.231 162.262C317.647 162.486 318.127 162.646 318.671 162.742V163.366C318.575 163.366 318.479 163.366 318.383 163.366C318.287 163.366 318.191 163.366 318.095 163.366C317.967 163.334 317.855 163.318 317.759 163.318C317.663 163.318 317.567 163.318 317.471 163.318C317.247 163.318 317.023 163.318 316.799 163.318C316.607 163.318 316.415 163.318 316.223 163.318C316.191 163.318 316.143 163.318 316.079 163.318C316.047 163.318 316.015 163.318 315.983 163.318C315.919 163.286 315.871 163.27 315.839 163.27C315.807 163.27 315.775 163.27 315.743 163.27C315.647 163.27 315.551 163.27 315.455 163.27C315.391 163.27 315.327 163.27 315.263 163.27C314.975 163.238 314.687 163.206 314.399 163.174C314.111 163.174 313.839 163.174 313.583 163.174C313.295 163.174 313.023 163.174 312.767 163.174C312.511 163.174 312.255 163.174 311.999 163.174C311.775 163.174 311.519 163.174 311.231 163.174C310.975 163.174 310.719 163.174 310.463 163.174C310.207 163.174 309.935 163.174 309.647 163.174C309.391 163.206 309.135 163.238 308.879 163.27C308.783 163.27 308.687 163.27 308.591 163.27C308.495 163.27 308.399 163.286 308.303 163.318C308.175 163.318 308.063 163.318 307.967 163.318C307.871 163.318 307.775 163.318 307.679 163.318C307.583 163.318 307.487 163.318 307.391 163.318C307.295 163.318 307.199 163.334 307.103 163.366C307.007 163.366 306.911 163.366 306.815 163.366C306.719 163.366 306.623 163.366 306.527 163.366C306.431 163.366 306.335 163.366 306.239 163.366C306.175 163.366 306.111 163.366 306.047 163.366C305.951 163.366 305.855 163.366 305.759 163.366C305.695 163.366 305.631 163.366 305.567 163.366V162.646C305.983 162.646 306.351 162.55 306.671 162.358C307.023 162.166 307.343 161.91 307.631 161.59C307.919 161.238 308.127 160.838 308.255 160.39C308.415 159.942 308.495 159.414 308.495 158.806V147.382C308.495 147.35 308.495 147.302 308.495 147.238C308.495 147.174 308.495 147.11 308.495 147.046C308.463 146.95 308.447 146.87 308.447 146.806C308.447 146.742 308.447 146.662 308.447 146.566C308.447 146.502 308.447 146.438 308.447 146.374C308.447 146.278 308.447 146.182 308.447 146.086C308.415 146.022 308.399 145.958 308.399 145.894C308.399 145.798 308.399 145.702 308.399 145.606C308.303 144.966 308.159 144.342 307.967 143.734C307.775 143.126 307.503 142.534 307.151 141.958C306.831 141.414 306.383 140.998 305.807 140.71C305.263 140.422 304.607 140.278 303.839 140.278C302.751 140.278 301.823 140.534 301.055 141.046C300.319 141.526 299.759 142.262 299.375 143.254C298.991 144.246 298.703 145.398 298.511 146.71C298.319 147.99 298.223 149.43 298.223 151.03V155.158C298.223 156.182 298.271 157.126 298.367 157.99C298.495 158.822 298.671 159.574 298.895 160.246C299.119 160.918 299.439 161.462 299.855 161.878C300.303 162.294 300.847 162.582 301.487 162.742V163.366C301.391 163.366 301.295 163.366 301.199 163.366C301.103 163.366 301.007 163.366 300.911 163.366C300.815 163.334 300.719 163.318 300.623 163.318C300.527 163.318 300.431 163.318 300.335 163.318C300.239 163.318 300.143 163.318 300.047 163.318C299.951 163.318 299.871 163.318 299.807 163.318C299.711 163.318 299.615 163.318 299.519 163.318C299.423 163.318 299.327 163.318 299.231 163.318C299.199 163.318 299.151 163.318 299.087 163.318C299.055 163.318 299.007 163.318 298.943 163.318C298.911 163.286 298.863 163.27 298.799 163.27C298.767 163.27 298.719 163.27 298.655 163.27C298.559 163.27 298.463 163.27 298.367 163.27C298.271 163.27 298.175 163.27 298.079 163.27C297.791 163.238 297.503 163.206 297.215 163.174C296.927 163.174 296.639 163.174 296.351 163.174C296.063 163.174 295.775 163.174 295.487 163.174C295.231 163.174 294.975 163.174 294.719 163.174C294.591 163.174 294.447 163.174 294.287 163.174C294.159 163.174 294.031 163.174 293.903 163.174C293.743 163.174 293.599 163.174 293.471 163.174C293.343 163.174 293.199 163.174 293.039 163.174C292.911 163.174 292.767 163.174 292.607 163.174C292.479 163.174 292.351 163.19 292.223 163.222C292.063 163.222 291.919 163.222 291.791 163.222C291.663 163.254 291.519 163.27 291.359 163.27C291.263 163.27 291.167 163.27 291.071 163.27C290.975 163.27 290.879 163.27 290.783 163.27C290.751 163.27 290.703 163.27 290.639 163.27C290.607 163.27 290.559 163.286 290.495 163.318C290.463 163.318 290.415 163.318 290.351 163.318C290.319 163.318 290.271 163.318 290.207 163.318C290.015 163.318 289.823 163.318 289.631 163.318C289.439 163.318 289.247 163.318 289.055 163.318C288.959 163.318 288.863 163.318 288.767 163.318C288.671 163.318 288.591 163.334 288.527 163.366C288.431 163.366 288.335 163.366 288.239 163.366C288.143 163.366 288.047 163.366 287.951 163.366V162.646C288.591 162.518 289.119 162.262 289.535 161.878C289.983 161.462 290.319 160.918 290.543 160.246C290.767 159.574 290.927 158.822 291.023 157.99C291.151 157.158 291.215 156.246 291.215 155.254V134.326C291.215 133.814 291.151 133.366 291.023 132.982C290.927 132.598 290.783 132.278 290.591 132.022C290.367 131.766 290.079 131.542 289.727 131.35C289.375 131.158 288.943 130.998 288.431 130.87V130.054C289.263 130.022 290.079 129.958 290.879 129.862C291.711 129.734 292.527 129.606 293.327 129.478C294.159 129.318 294.975 129.158 295.775 128.998C296.607 128.838 297.423 128.662 298.223 128.47V128.374ZM339.455 163.174L338.399 159.19C337.951 159.958 337.455 160.63 336.911 161.206C336.399 161.782 335.839 162.278 335.231 162.694C334.623 163.078 333.951 163.366 333.215 163.558C332.479 163.782 331.663 163.894 330.767 163.894C330.671 163.894 330.575 163.894 330.479 163.894C330.415 163.894 330.351 163.894 330.287 163.894C330.223 163.894 330.143 163.894 330.047 163.894C329.983 163.894 329.919 163.894 329.855 163.894C328.703 163.83 327.599 163.654 326.543 163.366C325.487 163.078 324.479 162.662 323.519 162.118C322.559 161.574 321.839 160.838 321.359 159.91C320.879 158.982 320.639 157.862 320.639 156.55C320.639 155.206 320.943 154.038 321.551 153.046C322.159 152.054 323.071 151.238 324.287 150.598C325.503 149.958 326.767 149.43 328.079 149.014C329.423 148.598 330.831 148.294 332.303 148.102C332.687 148.038 333.071 148.006 333.455 148.006C333.839 147.974 334.223 147.942 334.607 147.91C334.799 147.91 334.991 147.91 335.183 147.91C335.375 147.878 335.567 147.862 335.759 147.862C335.919 147.83 336.095 147.814 336.287 147.814C336.479 147.814 336.671 147.814 336.863 147.814L337.919 147.718V145.606C337.919 144.678 337.791 143.83 337.535 143.062C337.279 142.262 336.911 141.558 336.431 140.95C335.919 140.342 335.311 139.894 334.607 139.606C333.935 139.286 333.167 139.126 332.303 139.126C331.311 139.158 330.383 139.366 329.519 139.75C328.687 140.134 327.951 140.694 327.311 141.43C326.671 142.166 326.111 143.03 325.631 144.022C325.151 145.014 324.751 146.118 324.431 147.334L323.711 147.43L321.695 139.846C321.919 139.814 322.143 139.782 322.367 139.75C322.591 139.686 322.815 139.622 323.039 139.558C323.231 139.494 323.439 139.43 323.663 139.366C323.887 139.302 324.111 139.238 324.335 139.174C324.783 139.046 325.215 138.934 325.631 138.838C326.079 138.71 326.511 138.582 326.927 138.454C327.471 138.326 328.015 138.214 328.559 138.118C329.103 138.022 329.647 137.926 330.191 137.83C330.735 137.766 331.279 137.718 331.823 137.686C332.367 137.622 332.927 137.59 333.503 137.59C333.535 137.59 333.551 137.59 333.551 137.59C333.583 137.59 333.615 137.59 333.647 137.59C333.679 137.59 333.711 137.59 333.743 137.59C333.775 137.59 333.807 137.59 333.839 137.59C333.871 137.59 333.887 137.59 333.887 137.59C333.919 137.59 333.951 137.59 333.983 137.59C334.015 137.59 334.047 137.59 334.079 137.59C334.111 137.59 334.143 137.59 334.175 137.59C335.775 137.59 337.231 137.798 338.543 138.214C339.855 138.598 341.007 139.174 341.999 139.942C342.991 140.742 343.727 141.846 344.207 143.254C344.719 144.662 344.975 146.39 344.975 148.438V157.942C344.975 158.55 345.007 159.094 345.071 159.574C345.167 160.054 345.311 160.502 345.503 160.918C345.695 161.334 345.951 161.686 346.271 161.974C346.623 162.23 347.055 162.422 347.567 162.55V163.174H339.455ZM337.967 153.43V149.254H337.103C335.919 149.318 334.815 149.51 333.791 149.83C332.799 150.118 331.887 150.55 331.055 151.126C330.191 151.702 329.551 152.47 329.135 153.43C328.719 154.39 328.511 155.526 328.511 156.838C328.511 156.87 328.511 156.902 328.511 156.934C328.511 156.966 328.511 156.982 328.511 156.982C328.511 157.59 328.607 158.182 328.799 158.758C328.991 159.334 329.263 159.894 329.615 160.438C329.967 160.95 330.399 161.334 330.911 161.59C331.455 161.846 332.063 161.974 332.735 161.974C333.471 161.974 334.111 161.846 334.655 161.59C335.231 161.302 335.711 160.87 336.095 160.294C336.479 159.75 336.799 159.174 337.055 158.566C337.343 157.926 337.551 157.27 337.679 156.598C337.743 156.342 337.775 156.086 337.775 155.83C337.807 155.542 337.839 155.27 337.871 155.014C337.903 154.758 337.919 154.502 337.919 154.246C337.951 153.99 337.967 153.75 337.967 153.526V153.43ZM363.663 163.174H355.647C355.103 163.174 354.639 163.094 354.255 162.934C353.903 162.774 353.647 162.518 353.487 162.166C353.327 161.814 353.199 161.414 353.103 160.966C353.039 160.486 353.007 159.958 353.007 159.382C353.007 159.19 353.007 158.982 353.007 158.758C353.007 158.502 353.007 158.214 353.007 157.894C353.007 157.606 353.007 157.302 353.007 156.982C353.039 156.662 353.071 156.342 353.103 156.022C353.103 155.99 353.103 155.974 353.103 155.974C353.103 155.942 353.103 155.91 353.103 155.878C353.103 155.846 353.103 155.83 353.103 155.83C353.103 155.798 353.103 155.766 353.103 155.734C353.103 155.414 353.103 155.11 353.103 154.822C353.103 154.502 353.103 154.198 353.103 153.91C353.103 153.75 353.103 153.606 353.103 153.478C353.103 153.35 353.119 153.222 353.151 153.094C353.151 152.998 353.151 152.886 353.151 152.758C353.151 152.63 353.151 152.518 353.151 152.422V141.478H349.695L350.127 138.982C351.151 138.918 352.111 138.694 353.007 138.31C353.903 137.926 354.751 137.398 355.551 136.726C356.383 136.054 357.135 135.35 357.807 134.614C358.479 133.878 359.087 133.11 359.631 132.31L360.159 132.214V138.982H366.015L365.055 141.478H360.159V156.214C360.159 157.046 360.207 157.83 360.303 158.566C360.399 159.27 360.543 159.942 360.735 160.582C360.927 161.19 361.263 161.67 361.743 162.022C362.255 162.342 362.895 162.518 363.663 162.55V163.174ZM379.652 153.43H368.036L369.428 147.958H381.044L379.652 153.43ZM386.613 154.054V138.406C386.613 137.67 386.565 136.998 386.469 136.39C386.405 135.75 386.293 135.222 386.133 134.806C386.005 134.358 385.781 134.006 385.461 133.75C385.141 133.462 384.757 133.254 384.309 133.126V132.262C384.533 132.326 384.757 132.374 384.981 132.406C385.205 132.406 385.429 132.406 385.653 132.406C385.877 132.406 386.101 132.406 386.325 132.406C386.549 132.406 386.773 132.406 386.997 132.406C387.061 132.438 387.109 132.454 387.141 132.454C387.205 132.454 387.253 132.454 387.285 132.454C387.349 132.454 387.413 132.454 387.477 132.454C387.541 132.454 387.605 132.454 387.669 132.454C387.925 132.486 388.181 132.518 388.437 132.55C388.725 132.55 389.013 132.55 389.301 132.55C389.461 132.55 389.605 132.55 389.733 132.55C389.861 132.55 390.005 132.55 390.165 132.55C390.293 132.55 390.421 132.55 390.549 132.55C390.709 132.55 390.853 132.55 390.981 132.55L401.301 132.454C401.685 132.518 402.085 132.566 402.501 132.598C402.949 132.598 403.413 132.598 403.893 132.598C404.373 132.63 404.853 132.678 405.333 132.742C405.845 132.774 406.357 132.822 406.869 132.886C407.861 133.014 408.805 133.238 409.701 133.558C410.629 133.878 411.509 134.262 412.341 134.71C413.173 135.19 413.797 135.814 414.213 136.582C414.661 137.318 414.885 138.198 414.885 139.222C414.885 140.406 414.677 141.43 414.261 142.294C413.845 143.126 413.221 143.782 412.389 144.262C411.589 144.742 410.725 145.158 409.797 145.51C408.901 145.83 407.957 146.07 406.965 146.23C406.869 146.262 406.773 146.294 406.677 146.326C406.581 146.326 406.485 146.326 406.389 146.326C406.261 146.358 406.149 146.39 406.053 146.422C405.957 146.422 405.861 146.422 405.765 146.422C405.573 146.454 405.381 146.486 405.189 146.518C404.997 146.55 404.805 146.566 404.613 146.566C404.933 146.63 405.253 146.678 405.573 146.71C405.925 146.742 406.277 146.774 406.629 146.806C406.981 146.838 407.333 146.886 407.685 146.95C408.037 147.014 408.389 147.078 408.741 147.142C409.829 147.366 410.869 147.686 411.861 148.102C412.853 148.486 413.797 148.966 414.693 149.542C415.621 150.15 416.309 150.918 416.757 151.846C417.205 152.742 417.429 153.798 417.429 155.014C417.429 156.294 417.173 157.414 416.661 158.374C416.181 159.302 415.445 160.054 414.453 160.63C413.461 161.206 412.421 161.686 411.333 162.07C410.245 162.422 409.109 162.678 407.925 162.838C407.317 162.934 406.709 163.014 406.101 163.078C405.525 163.142 404.949 163.174 404.373 163.174C403.797 163.174 403.253 163.174 402.741 163.174C402.229 163.174 401.749 163.174 401.301 163.174H392.037C391.685 163.174 391.317 163.174 390.933 163.174C390.581 163.174 390.229 163.174 389.877 163.174C389.685 163.174 389.493 163.174 389.301 163.174C389.109 163.174 388.933 163.19 388.773 163.222C388.581 163.222 388.389 163.222 388.197 163.222C388.005 163.254 387.813 163.27 387.621 163.27C387.461 163.27 387.285 163.27 387.093 163.27C386.933 163.27 386.773 163.27 386.613 163.27C386.517 163.27 386.421 163.27 386.325 163.27C386.229 163.27 386.149 163.286 386.085 163.318C385.989 163.318 385.893 163.318 385.797 163.318C385.733 163.318 385.653 163.318 385.557 163.318C385.461 163.318 385.349 163.318 385.221 163.318C385.125 163.318 385.029 163.334 384.933 163.366C384.805 163.366 384.693 163.366 384.597 163.366C384.501 163.366 384.405 163.366 384.309 163.366C384.085 163.366 383.861 163.366 383.637 163.366C383.445 163.366 383.253 163.366 383.061 163.366V162.406C383.893 162.406 384.565 162.198 385.077 161.782C385.589 161.334 385.925 160.694 386.085 159.862C386.245 159.03 386.373 158.15 386.469 157.222C386.565 156.262 386.613 155.238 386.613 154.15V154.054ZM395.061 147.43V154.054C395.061 155.814 395.157 157.222 395.349 158.278C395.541 159.334 395.797 160.07 396.117 160.486C396.469 160.902 397.029 161.222 397.797 161.446C398.597 161.638 399.621 161.734 400.869 161.734C402.053 161.734 403.109 161.59 404.037 161.302C404.965 160.982 405.781 160.518 406.485 159.91C407.189 159.302 407.717 158.55 408.069 157.654C408.421 156.726 408.597 155.654 408.597 154.438C408.597 153.19 408.373 152.134 407.925 151.27C407.477 150.406 406.805 149.734 405.909 149.254C405.013 148.806 404.069 148.454 403.077 148.198C402.085 147.91 401.061 147.718 400.005 147.622C399.877 147.622 399.749 147.622 399.621 147.622C399.525 147.622 399.413 147.606 399.285 147.574C399.157 147.574 399.029 147.574 398.901 147.574C398.805 147.574 398.693 147.574 398.565 147.574C398.437 147.574 398.309 147.574 398.181 147.574C398.085 147.574 397.973 147.558 397.845 147.526C397.717 147.526 397.589 147.526 397.461 147.526C397.365 147.526 397.253 147.526 397.125 147.526L395.061 147.43ZM395.061 133.99V145.894H396.645C396.645 145.958 396.645 145.99 396.645 145.99C396.677 145.99 396.709 145.99 396.741 145.99C396.773 145.99 396.805 145.99 396.837 145.99C396.869 145.99 396.901 145.99 396.933 145.99C398.053 145.99 399.125 145.894 400.149 145.702C401.205 145.51 402.213 145.238 403.173 144.886C404.133 144.534 404.853 143.942 405.333 143.11C405.813 142.278 406.053 141.222 406.053 139.942C406.053 139.942 406.053 139.926 406.053 139.894C406.053 139.862 406.053 139.83 406.053 139.798C406.053 139.766 406.053 139.734 406.053 139.702C406.053 138.582 405.845 137.654 405.429 136.918C405.045 136.15 404.469 135.59 403.701 135.238C402.933 134.886 401.957 134.614 400.773 134.422C399.621 134.23 398.245 134.118 396.645 134.086L395.061 133.99ZM434.987 137.494C436.907 137.558 438.699 137.894 440.363 138.502C442.059 139.078 443.643 139.958 445.115 141.142C446.555 142.326 447.643 143.734 448.379 145.366C449.115 146.966 449.483 148.774 449.483 150.79C449.483 152.838 449.115 154.662 448.379 156.262C447.643 157.862 446.555 159.254 445.115 160.438C443.643 161.622 442.059 162.502 440.363 163.078C438.699 163.622 436.907 163.894 434.987 163.894C433.067 163.894 431.259 163.622 429.563 163.078C427.867 162.502 426.299 161.622 424.859 160.438C423.387 159.254 422.283 157.862 421.547 156.262C420.843 154.662 420.491 152.838 420.491 150.79C420.491 148.774 420.843 146.966 421.547 145.366C422.283 143.734 423.387 142.326 424.859 141.142C426.299 139.958 427.867 139.078 429.563 138.502C431.259 137.894 433.067 137.59 434.987 137.59V137.494ZM434.987 139.03C434.027 139.094 433.195 139.318 432.491 139.702C431.787 140.086 431.195 140.646 430.715 141.382C430.235 142.118 429.835 142.902 429.515 143.734C429.195 144.534 428.955 145.382 428.795 146.278C428.699 146.694 428.619 147.11 428.555 147.526C428.523 147.91 428.491 148.294 428.459 148.678C428.427 149.062 428.395 149.43 428.363 149.782C428.363 150.134 428.363 150.47 428.363 150.79C428.363 151.11 428.363 151.462 428.363 151.846C428.395 152.198 428.427 152.566 428.459 152.95C428.459 153.142 428.475 153.334 428.507 153.526C428.539 153.718 428.555 153.91 428.555 154.102C428.587 154.326 428.619 154.534 428.651 154.726C428.715 154.918 428.763 155.11 428.795 155.302C428.955 156.198 429.195 157.062 429.515 157.894C429.835 158.726 430.235 159.51 430.715 160.246C431.195 160.982 431.787 161.542 432.491 161.926C433.195 162.278 434.027 162.454 434.987 162.454C435.915 162.454 436.731 162.278 437.435 161.926C438.139 161.542 438.731 160.982 439.211 160.246C439.691 159.51 440.091 158.726 440.411 157.894C440.731 157.062 440.987 156.198 441.179 155.302C441.211 155.11 441.243 154.918 441.275 154.726C441.307 154.534 441.339 154.326 441.371 154.102C441.403 153.91 441.419 153.718 441.419 153.526C441.451 153.334 441.483 153.142 441.515 152.95C441.547 152.566 441.563 152.198 441.563 151.846C441.595 151.462 441.611 151.11 441.611 150.79C441.611 150.47 441.595 150.134 441.563 149.782C441.563 149.43 441.547 149.062 441.515 148.678C441.483 148.294 441.435 147.91 441.371 147.526C441.307 147.11 441.243 146.694 441.179 146.278C440.987 145.382 440.731 144.534 440.411 143.734C440.091 142.902 439.691 142.118 439.211 141.382C438.731 140.646 438.139 140.086 437.435 139.702C436.731 139.318 435.915 139.126 434.987 139.126V139.03ZM465.85 163.174H457.834C457.29 163.174 456.826 163.094 456.442 162.934C456.09 162.774 455.834 162.518 455.674 162.166C455.514 161.814 455.386 161.414 455.29 160.966C455.226 160.486 455.194 159.958 455.194 159.382C455.194 159.19 455.194 158.982 455.194 158.758C455.194 158.502 455.194 158.214 455.194 157.894C455.194 157.606 455.194 157.302 455.194 156.982C455.226 156.662 455.258 156.342 455.29 156.022C455.29 155.99 455.29 155.974 455.29 155.974C455.29 155.942 455.29 155.91 455.29 155.878C455.29 155.846 455.29 155.83 455.29 155.83C455.29 155.798 455.29 155.766 455.29 155.734C455.29 155.414 455.29 155.11 455.29 154.822C455.29 154.502 455.29 154.198 455.29 153.91C455.29 153.75 455.29 153.606 455.29 153.478C455.29 153.35 455.306 153.222 455.338 153.094C455.338 152.998 455.338 152.886 455.338 152.758C455.338 152.63 455.338 152.518 455.338 152.422V141.478H451.882L452.314 138.982C453.338 138.918 454.298 138.694 455.194 138.31C456.09 137.926 456.938 137.398 457.738 136.726C458.57 136.054 459.322 135.35 459.994 134.614C460.666 133.878 461.274 133.11 461.818 132.31L462.346 132.214V138.982H468.202L467.242 141.478H462.346V156.214C462.346 157.046 462.394 157.83 462.49 158.566C462.586 159.27 462.73 159.942 462.922 160.582C463.114 161.19 463.45 161.67 463.93 162.022C464.442 162.342 465.082 162.518 465.85 162.55V163.174Z" fill="black"/>
<circle cx="544.006" cy="88.7746" r="14.8805" fill="#EC1E24"/>
<circle cx="615.851" cy="88.7746" r="14.8805" fill="#EC1E24"/>
<circle cx="619.533" cy="10.6518" r="10.556" fill="#EC1E24"/>
<circle cx="538.62" cy="10.6518" r="10.556" fill="#EC1E24"/>
<line x1="620.351" y1="19.8127" x2="620.351" y2="39.576" stroke="#EC1E24" stroke-width="9"/>
<line x1="539.438" y1="19.8128" x2="539.438" y2="39.576" stroke="#EC1E24" stroke-width="9"/>
<path fill-rule="evenodd" clip-rule="evenodd" d="M545.447 134.881C544.708 134.89 544.015 134.898 543.378 134.904C540.599 134.933 538.092 136.587 536.985 139.136L531.292 152.251C528.454 158.788 536.102 164.961 541.918 160.844C556.753 150.34 575.376 137.429 583.1 133.208C585.541 132.856 586.93 132.433 586.693 131.925C586.516 131.547 585.218 132.051 583.1 133.208C579.201 133.77 572.62 134.151 565.707 134.408C565.289 134.691 564.858 134.988 564.411 135.299C563.713 135.786 563.311 136.027 562.818 136.324C561.115 137.347 558.324 139.024 538.455 153.736C542.14 144.251 542.024 144.543 541.907 144.836C541.791 145.128 541.675 145.42 545.36 135.935C545.498 135.579 545.523 135.227 545.447 134.881Z" fill="#EC1E24"/>
<path fill-rule="evenodd" clip-rule="evenodd" d="M540.965 35.9472C511.851 35.9472 488.249 59.5491 488.249 88.6635C488.249 117.881 512.018 141.505 541.218 141.41C541.895 141.408 542.568 141.406 543.236 141.404C543.742 140.099 544.43 138.328 545.36 135.935C546.408 133.237 540.924 130.796 534.929 128.955C515.312 126.007 500.249 109.098 500.249 88.6635C500.249 66.1766 518.478 47.9472 540.965 47.9472H614.828C637.376 47.9472 655.655 66.2263 655.655 88.7746C655.655 111.262 637.366 129.444 614.855 129.371C603.723 129.335 591.82 129.318 577.38 129.331C572.76 130.024 569.604 131.679 564.411 135.299C563.713 135.786 563.311 136.027 562.818 136.323C561.812 136.928 560.427 137.76 555.371 141.369C580.559 141.307 598.518 141.319 614.816 141.371C643.946 141.465 667.655 117.929 667.655 88.7746C667.655 59.5988 644.003 35.9472 614.828 35.9472H540.965Z" fill="#EC1E24"/>
</svg>
