<svg width="405" height="89" viewBox="0 0 405 89" fill="none" xmlns="http://www.w3.org/2000/svg">
<path d="M109.09 48.7254V46.6014C109.09 45.8334 109.03 45.1974 108.91 44.6934C108.79 44.1654 108.598 43.7814 108.334 43.5414C108.094 43.3014 107.722 43.0974 107.218 42.9294C106.714 42.7374 106.09 42.5934 105.346 42.4974V41.8494C105.394 41.8734 105.442 41.8974 105.49 41.9214C105.538 41.9214 105.598 41.9214 105.67 41.9214C105.718 41.9214 105.766 41.9214 105.814 41.9214C105.862 41.9214 105.91 41.9214 105.958 41.9214C106.078 41.9214 106.186 41.9214 106.282 41.9214C106.402 41.9214 106.51 41.9214 106.606 41.9214C106.75 41.9454 106.894 41.9694 107.038 41.9934C107.206 41.9934 107.374 41.9934 107.542 41.9934C107.686 41.9934 107.83 41.9934 107.974 41.9934C108.142 41.9934 108.31 41.9934 108.478 41.9934C108.598 41.9934 108.718 42.0054 108.838 42.0294C108.982 42.0294 109.126 42.0294 109.27 42.0294C109.39 42.0534 109.51 42.0654 109.63 42.0654C109.774 42.0654 109.906 42.0654 110.026 42.0654C110.29 42.0654 110.53 42.0654 110.746 42.0654C110.986 42.0654 111.226 42.0654 111.466 42.0654C111.706 42.0654 111.946 42.0654 112.186 42.0654C112.45 42.0654 112.714 42.0654 112.978 42.0654C113.242 42.0654 113.506 42.0654 113.77 42.0654C114.034 42.0414 114.31 42.0174 114.598 41.9934C114.646 41.9934 114.694 41.9934 114.742 41.9934C114.814 41.9934 114.886 41.9934 114.958 41.9934C115.006 41.9934 115.042 41.9934 115.066 41.9934C115.09 41.9934 115.126 41.9814 115.174 41.9574C115.198 41.9574 115.222 41.9574 115.246 41.9574C115.294 41.9574 115.33 41.9574 115.354 41.9574C115.474 41.9574 115.582 41.9574 115.678 41.9574C115.774 41.9574 115.882 41.9574 116.002 41.9574C116.098 41.9574 116.194 41.9574 116.29 41.9574C116.41 41.9574 116.518 41.9574 116.614 41.9574C116.71 41.9574 116.806 41.9574 116.902 41.9574C116.998 41.9574 117.106 41.9454 117.226 41.9214C117.322 41.9214 117.418 41.9214 117.514 41.9214C117.634 41.9214 117.742 41.9214 117.838 41.9214V42.4254C117.334 42.4974 116.914 42.6534 116.578 42.8934C116.242 43.1334 116.002 43.4574 115.858 43.8654C115.714 44.2974 115.606 44.8254 115.534 45.4494C115.462 46.0494 115.426 46.7694 115.426 47.6094C115.426 47.9214 115.426 48.2454 115.426 48.5814C115.426 48.8934 115.438 49.2174 115.462 49.5534C115.486 49.8654 115.534 50.1894 115.606 50.5254C115.678 50.8374 115.762 51.1614 115.858 51.4974C115.642 51.5934 115.426 51.7014 115.21 51.8214C115.018 51.9174 114.826 52.0134 114.634 52.1094C114.442 52.2054 114.25 52.3014 114.058 52.3974C113.866 52.4694 113.674 52.5414 113.482 52.6134C112.786 52.9014 112.078 53.1534 111.358 53.3694C110.638 53.5614 109.918 53.7294 109.198 53.8734C108.478 54.0174 107.71 54.1254 106.894 54.1974C106.078 54.2694 105.214 54.3054 104.302 54.3054C102.55 54.3054 100.894 54.0534 99.3341 53.5494C97.7741 53.0454 96.2861 52.2774 94.8701 51.2454C93.4781 50.2134 92.4341 48.9414 91.7381 47.4294C91.0421 45.9174 90.6941 44.1534 90.6941 42.1374C90.6941 40.1454 91.0421 38.3934 91.7381 36.8814C92.4341 35.3454 93.4781 34.0614 94.8701 33.0294C96.2861 31.9734 97.7741 31.1934 99.3341 30.6894C100.894 30.1614 102.55 29.8974 104.302 29.8974C105.43 29.8974 106.51 29.9574 107.542 30.0774C108.574 30.1734 109.57 30.3174 110.53 30.5094C111.49 30.7254 112.39 30.9774 113.23 31.2654C114.07 31.5534 114.862 31.8894 115.606 32.2734L113.41 39.1854H112.834C112.69 38.1534 112.438 37.1694 112.078 36.2334C111.718 35.2734 111.25 34.3854 110.674 33.5694C110.098 32.7294 109.354 32.1054 108.442 31.6974C107.554 31.2654 106.51 31.0494 105.31 31.0494C104.23 31.0494 103.27 31.2534 102.43 31.6614C101.614 32.0454 100.93 32.6214 100.378 33.3894C99.8021 34.1814 99.3221 35.0094 98.9381 35.8734C98.5781 36.7134 98.3021 37.6014 98.1101 38.5374C98.0381 38.8494 97.9781 39.1614 97.9301 39.4734C97.9061 39.7854 97.8701 40.0974 97.8221 40.4094C97.7981 40.7214 97.7741 41.0214 97.7501 41.3094C97.7501 41.5974 97.7501 41.8734 97.7501 42.1374C97.7501 42.4254 97.7501 42.7134 97.7501 43.0014C97.7741 43.2894 97.7981 43.6014 97.8221 43.9374C97.8461 44.2494 97.8701 44.5614 97.8941 44.8734C97.9421 45.1854 97.9901 45.4974 98.0381 45.8094C98.1821 46.7454 98.4101 47.6454 98.7221 48.5094C99.0581 49.3494 99.4781 50.1534 99.9821 50.9214C100.486 51.6894 101.134 52.2654 101.926 52.6494C102.718 53.0334 103.666 53.2254 104.77 53.2254C105.466 53.2254 106.078 53.1294 106.606 52.9374C107.158 52.7214 107.614 52.4214 107.974 52.0374C108.334 51.6294 108.61 51.1614 108.802 50.6334C108.994 50.0814 109.09 49.4694 109.09 48.7974V48.7254ZM134.27 34.3254L132.11 40.5894C132.038 40.5414 131.966 40.4814 131.894 40.4094C131.822 40.3374 131.75 40.2654 131.678 40.1934C131.582 40.1214 131.498 40.0614 131.426 40.0134C131.354 39.9414 131.282 39.8694 131.21 39.7974C131.042 39.6774 130.862 39.5814 130.67 39.5094C130.478 39.4374 130.262 39.4014 130.022 39.4014C129.518 39.4014 129.086 39.5334 128.726 39.7974C128.39 40.0614 128.114 40.4574 127.898 40.9854C127.682 41.5134 127.514 42.0774 127.394 42.6774C127.298 43.2534 127.238 43.8534 127.214 44.4774C127.214 44.5014 127.214 44.5374 127.214 44.5854C127.214 44.6094 127.214 44.6454 127.214 44.6934C127.214 44.7174 127.214 44.7414 127.214 44.7654C127.214 44.7894 127.214 44.8134 127.214 44.8374C127.214 44.8374 127.214 44.8494 127.214 44.8734V47.5734C127.214 48.3414 127.25 49.0494 127.322 49.6974C127.418 50.3214 127.55 50.8854 127.718 51.3894C127.886 51.8934 128.126 52.3014 128.438 52.6134C128.774 52.9254 129.182 53.1414 129.662 53.2614V53.7294C129.59 53.7294 129.518 53.7294 129.446 53.7294C129.374 53.7294 129.302 53.7294 129.23 53.7294C129.158 53.7054 129.086 53.6934 129.014 53.6934C128.942 53.6934 128.87 53.6934 128.798 53.6934C128.726 53.6934 128.654 53.6934 128.582 53.6934C128.51 53.6934 128.45 53.6934 128.402 53.6934C128.33 53.6934 128.258 53.6934 128.186 53.6934C128.114 53.6934 128.042 53.6934 127.97 53.6934C127.946 53.6934 127.91 53.6934 127.862 53.6934C127.838 53.6934 127.802 53.6934 127.754 53.6934C127.73 53.6694 127.694 53.6574 127.646 53.6574C127.622 53.6574 127.586 53.6574 127.538 53.6574C127.466 53.6574 127.394 53.6574 127.322 53.6574C127.25 53.6574 127.178 53.6574 127.106 53.6574C126.89 53.6334 126.674 53.6094 126.458 53.5854C126.242 53.5854 126.026 53.5854 125.81 53.5854C125.594 53.5854 125.378 53.5854 125.162 53.5854C124.97 53.5854 124.778 53.5854 124.586 53.5854C124.49 53.5854 124.382 53.5854 124.262 53.5854C124.166 53.5854 124.07 53.5854 123.974 53.5854C123.854 53.5854 123.746 53.5854 123.65 53.5854C123.554 53.5854 123.446 53.5854 123.326 53.5854C123.23 53.5854 123.122 53.5854 123.002 53.5854C122.906 53.5854 122.81 53.5974 122.714 53.6214C122.594 53.6214 122.486 53.6214 122.39 53.6214C122.294 53.6454 122.186 53.6574 122.066 53.6574C121.994 53.6574 121.922 53.6574 121.85 53.6574C121.778 53.6574 121.706 53.6574 121.634 53.6574C121.61 53.6574 121.574 53.6574 121.526 53.6574C121.502 53.6574 121.466 53.6694 121.418 53.6934C121.394 53.6934 121.358 53.6934 121.31 53.6934C121.286 53.6934 121.25 53.6934 121.202 53.6934C121.058 53.6934 120.914 53.6934 120.77 53.6934C120.626 53.6934 120.482 53.6934 120.338 53.6934C120.266 53.6934 120.194 53.6934 120.122 53.6934C120.05 53.6934 119.99 53.7054 119.942 53.7294C119.87 53.7294 119.798 53.7294 119.726 53.7294C119.654 53.7294 119.582 53.7294 119.51 53.7294V53.1894C119.99 53.0934 120.386 52.9014 120.698 52.6134C121.034 52.3014 121.286 51.8934 121.454 51.3894C121.622 50.8854 121.742 50.3214 121.814 49.6974C121.91 49.0734 121.958 48.3894 121.958 47.6454V39.9054C121.958 39.3534 121.898 38.8734 121.778 38.4654C121.682 38.0574 121.526 37.7334 121.31 37.4934C121.094 37.2294 120.866 37.0254 120.626 36.8814C120.41 36.7134 120.17 36.5934 119.906 36.5214C119.882 36.5214 119.858 36.5214 119.834 36.5214C119.834 36.5214 119.822 36.5214 119.798 36.5214C119.798 36.5214 119.786 36.5214 119.762 36.5214C119.762 36.5214 119.762 36.5094 119.762 36.4854C119.738 36.4854 119.726 36.4854 119.726 36.4854V35.8734C119.798 35.9214 119.87 35.9454 119.942 35.9454C120.014 35.9454 120.086 35.9334 120.158 35.9094C120.206 35.9094 120.242 35.9094 120.266 35.9094C120.314 35.9094 120.362 35.8974 120.41 35.8734C120.434 35.8734 120.47 35.8734 120.518 35.8734C120.566 35.8734 120.602 35.8734 120.626 35.8734C121.13 35.8254 121.646 35.7774 122.174 35.7294C122.702 35.6574 123.23 35.5854 123.758 35.5134C124.286 35.4414 124.814 35.3574 125.342 35.2614C125.894 35.1414 126.458 35.0334 127.034 34.9374C127.034 35.0094 127.034 35.0814 127.034 35.1534C127.034 35.2014 127.034 35.2494 127.034 35.2974C127.01 35.3694 126.998 35.4414 126.998 35.5134C126.998 35.5614 126.998 35.6094 126.998 35.6574C126.998 35.7774 126.998 35.9094 126.998 36.0534C126.998 36.1734 126.998 36.2934 126.998 36.4134C126.998 36.4854 126.998 36.5574 126.998 36.6294C126.998 36.7014 126.998 36.7614 126.998 36.8094C126.974 36.8814 126.962 36.9534 126.962 37.0254C126.962 37.0734 126.962 37.1334 126.962 37.2054C126.962 37.3494 126.962 37.4934 126.962 37.6374C126.962 37.7574 126.962 37.8774 126.962 37.9974V40.0854H127.034C127.082 40.0134 127.118 39.9294 127.142 39.8334C127.19 39.7134 127.226 39.6054 127.25 39.5094C127.274 39.4614 127.286 39.4134 127.286 39.3654C127.31 39.2934 127.334 39.2214 127.358 39.1494C127.382 39.1014 127.406 39.0534 127.43 39.0054C127.454 38.9334 127.478 38.8734 127.502 38.8254C127.742 38.2734 128.03 37.7454 128.366 37.2414C128.702 36.7374 129.086 36.2574 129.518 35.8014C129.95 35.3214 130.43 34.9734 130.958 34.7574C131.486 34.5174 132.05 34.3974 132.65 34.3974L134.27 34.3254ZM149.274 53.5854L148.482 50.5974C148.146 51.1734 147.774 51.6774 147.366 52.1094C146.982 52.5414 146.562 52.9134 146.106 53.2254C145.65 53.5134 145.146 53.7294 144.594 53.8734C144.042 54.0414 143.43 54.1254 142.758 54.1254C142.686 54.1254 142.614 54.1254 142.542 54.1254C142.494 54.1254 142.446 54.1254 142.398 54.1254C142.35 54.1254 142.29 54.1254 142.218 54.1254C142.17 54.1254 142.122 54.1254 142.074 54.1254C141.21 54.0774 140.382 53.9454 139.59 53.7294C138.798 53.5134 138.042 53.2014 137.322 52.7934C136.602 52.3854 136.062 51.8334 135.702 51.1374C135.342 50.4414 135.162 49.6014 135.162 48.6174C135.162 47.6094 135.39 46.7334 135.846 45.9894C136.302 45.2454 136.986 44.6334 137.898 44.1534C138.81 43.6734 139.758 43.2774 140.742 42.9654C141.75 42.6534 142.806 42.4254 143.91 42.2814C144.198 42.2334 144.486 42.2094 144.774 42.2094C145.062 42.1854 145.35 42.1614 145.638 42.1374C145.782 42.1374 145.926 42.1374 146.07 42.1374C146.214 42.1134 146.358 42.1014 146.502 42.1014C146.622 42.0774 146.754 42.0654 146.898 42.0654C147.042 42.0654 147.186 42.0654 147.33 42.0654L148.122 41.9934V40.4094C148.122 39.7134 148.026 39.0774 147.834 38.5014C147.642 37.9014 147.366 37.3734 147.006 36.9174C146.622 36.4614 146.166 36.1254 145.638 35.9094C145.134 35.6694 144.558 35.5494 143.91 35.5494C143.166 35.5734 142.47 35.7294 141.822 36.0174C141.198 36.3054 140.646 36.7254 140.166 37.2774C139.686 37.8294 139.266 38.4774 138.906 39.2214C138.546 39.9654 138.246 40.7934 138.006 41.7054L137.466 41.7774L135.954 36.0894C136.122 36.0654 136.29 36.0414 136.458 36.0174C136.626 35.9694 136.794 35.9214 136.962 35.8734C137.106 35.8254 137.262 35.7774 137.43 35.7294C137.598 35.6814 137.766 35.6334 137.934 35.5854C138.27 35.4894 138.594 35.4054 138.906 35.3334C139.242 35.2374 139.566 35.1414 139.878 35.0454C140.286 34.9494 140.694 34.8654 141.102 34.7934C141.51 34.7214 141.918 34.6494 142.326 34.5774C142.734 34.5294 143.142 34.4934 143.55 34.4694C143.958 34.4214 144.378 34.3974 144.81 34.3974C144.834 34.3974 144.846 34.3974 144.846 34.3974C144.87 34.3974 144.894 34.3974 144.918 34.3974C144.942 34.3974 144.966 34.3974 144.99 34.3974C145.014 34.3974 145.038 34.3974 145.062 34.3974C145.086 34.3974 145.098 34.3974 145.098 34.3974C145.122 34.3974 145.146 34.3974 145.17 34.3974C145.194 34.3974 145.218 34.3974 145.242 34.3974C145.266 34.3974 145.29 34.3974 145.314 34.3974C146.514 34.3974 147.606 34.5534 148.59 34.8654C149.574 35.1534 150.438 35.5854 151.182 36.1614C151.926 36.7614 152.478 37.5894 152.838 38.6454C153.222 39.7014 153.414 40.9974 153.414 42.5334V49.6614C153.414 50.1174 153.438 50.5254 153.486 50.8854C153.558 51.2454 153.666 51.5814 153.81 51.8934C153.954 52.2054 154.146 52.4694 154.386 52.6854C154.65 52.8774 154.974 53.0214 155.358 53.1174V53.5854H149.274ZM148.158 46.2774V43.1454H147.51C146.622 43.1934 145.794 43.3374 145.026 43.5774C144.282 43.7934 143.598 44.1174 142.974 44.5494C142.326 44.9814 141.846 45.5574 141.534 46.2774C141.222 46.9974 141.066 47.8494 141.066 48.8334C141.066 48.8574 141.066 48.8814 141.066 48.9054C141.066 48.9294 141.066 48.9414 141.066 48.9414C141.066 49.3974 141.138 49.8414 141.282 50.2734C141.426 50.7054 141.63 51.1254 141.894 51.5334C142.158 51.9174 142.482 52.2054 142.866 52.3974C143.274 52.5894 143.73 52.6854 144.234 52.6854C144.786 52.6854 145.266 52.5894 145.674 52.3974C146.106 52.1814 146.466 51.8574 146.754 51.4254C147.042 51.0174 147.282 50.5854 147.474 50.1294C147.69 49.6494 147.846 49.1574 147.942 48.6534C147.99 48.4614 148.014 48.2694 148.014 48.0774C148.038 47.8614 148.062 47.6574 148.086 47.4654C148.11 47.2734 148.122 47.0814 148.122 46.8894C148.146 46.6974 148.158 46.5174 148.158 46.3494V46.2774ZM163.973 34.8654V38.2494H164.045C164.381 37.6254 164.765 37.0734 165.197 36.5934C165.629 36.0894 166.097 35.6814 166.601 35.3694C167.105 35.0334 167.681 34.7934 168.329 34.6494C168.977 34.4814 169.709 34.3974 170.525 34.3974C171.797 34.3974 172.973 34.6494 174.053 35.1534C175.133 35.6574 176.117 36.4014 177.005 37.3854C177.869 38.3694 178.517 39.4254 178.949 40.5534C179.405 41.6574 179.633 42.8334 179.633 44.0814C179.633 45.4494 179.417 46.7214 178.985 47.8974C178.553 49.0734 177.905 50.1654 177.041 51.1734C176.177 52.1814 175.193 52.9254 174.089 53.4054C173.009 53.8854 171.821 54.1254 170.525 54.1254C169.877 54.1254 169.265 54.0774 168.689 53.9814C168.113 53.9094 167.561 53.7894 167.033 53.6214C166.505 53.5014 166.001 53.2974 165.521 53.0094C165.041 52.6974 164.573 52.3254 164.117 51.8934V56.3574C164.117 56.8614 164.165 57.3174 164.261 57.7254C164.357 58.1334 164.501 58.4934 164.693 58.8054C164.885 59.0934 165.173 59.3334 165.557 59.5254C165.965 59.7174 166.457 59.8614 167.033 59.9574V60.5694C166.937 60.5694 166.841 60.5694 166.745 60.5694C166.673 60.5694 166.601 60.5694 166.529 60.5694C166.433 60.5454 166.337 60.5334 166.241 60.5334C166.169 60.5334 166.085 60.5334 165.989 60.5334C165.821 60.5334 165.641 60.5334 165.449 60.5334C165.281 60.5334 165.101 60.5334 164.909 60.5334C164.837 60.5094 164.777 60.4974 164.729 60.4974C164.681 60.4974 164.633 60.4974 164.585 60.4974C164.537 60.4974 164.489 60.4974 164.441 60.4974C164.393 60.4974 164.345 60.4974 164.297 60.4974C164.057 60.4734 163.817 60.4494 163.577 60.4254C163.337 60.4254 163.109 60.4254 162.893 60.4254C162.677 60.4254 162.461 60.4254 162.245 60.4254C162.029 60.4254 161.825 60.4254 161.633 60.4254C161.441 60.4254 161.237 60.4254 161.021 60.4254C160.829 60.4254 160.625 60.4254 160.409 60.4254C160.193 60.4254 159.977 60.4254 159.761 60.4254C159.545 60.4494 159.329 60.4734 159.113 60.4974C158.993 60.4974 158.861 60.4974 158.717 60.4974C158.597 60.4974 158.477 60.4974 158.357 60.4974C158.285 60.4974 158.213 60.4974 158.141 60.4974C158.093 60.4974 158.045 60.5094 157.997 60.5334C157.925 60.5334 157.853 60.5334 157.781 60.5334C157.733 60.5334 157.685 60.5334 157.637 60.5334C157.589 60.5334 157.541 60.5334 157.493 60.5334C157.445 60.5334 157.397 60.5454 157.349 60.5694C157.277 60.5694 157.217 60.5694 157.169 60.5694C157.121 60.5694 157.073 60.5694 157.025 60.5694C156.929 60.5694 156.833 60.5694 156.737 60.5694C156.641 60.5694 156.545 60.5694 156.449 60.5694V60.0294C156.929 59.9574 157.325 59.8254 157.637 59.6334C157.973 59.4414 158.225 59.1774 158.393 58.8414C158.537 58.5294 158.645 58.1814 158.717 57.7974C158.813 57.4374 158.861 57.0534 158.861 56.6454V39.4734C158.861 39.0654 158.813 38.6934 158.717 38.3574C158.645 38.0214 158.525 37.7334 158.357 37.4934C158.189 37.2534 157.985 37.0734 157.745 36.9534C157.529 36.8094 157.253 36.7254 156.917 36.7014V36.0894C157.541 36.0654 158.153 36.0174 158.753 35.9454C159.377 35.8494 159.989 35.7534 160.589 35.6574C161.189 35.5614 161.765 35.4534 162.317 35.3334C162.893 35.2134 163.445 35.0814 163.973 34.9374V34.8654ZM164.117 44.2254C164.117 45.6414 164.201 46.8894 164.369 47.9694C164.561 49.0254 164.849 49.9134 165.233 50.6334C165.617 51.3774 166.109 51.9294 166.709 52.2894C167.333 52.6494 168.065 52.8294 168.905 52.8294C169.745 52.8294 170.465 52.6494 171.065 52.2894C171.689 51.9294 172.193 51.3774 172.577 50.6334C172.961 49.9134 173.249 49.0254 173.441 47.9694C173.633 46.9134 173.729 45.6894 173.729 44.2974C173.729 42.9054 173.633 41.6814 173.441 40.6254C173.249 39.5694 172.961 38.6814 172.577 37.9614C172.193 37.2414 171.701 36.7014 171.101 36.3414C170.501 35.9574 169.781 35.7654 168.941 35.7654C168.101 35.7654 167.369 35.9574 166.745 36.3414C166.145 36.7014 165.653 37.2414 165.269 37.9614C164.885 38.6814 164.597 39.5694 164.405 40.6254C164.213 41.6814 164.117 42.9054 164.117 44.2974V44.2254ZM189.014 27.4854V38.3574V38.4294H189.086C189.422 37.7814 189.794 37.2054 190.202 36.7014C190.61 36.1974 191.078 35.7774 191.606 35.4414C192.11 35.1054 192.686 34.8534 193.334 34.6854C193.982 34.4934 194.69 34.3974 195.458 34.3974C196.418 34.3974 197.282 34.5534 198.05 34.8654C198.842 35.1534 199.538 35.5854 200.138 36.1614C200.762 36.7374 201.218 37.4094 201.506 38.1774C201.818 38.9454 201.974 39.8094 201.974 40.7694V50.2374C201.974 50.6934 202.022 51.0894 202.118 51.4254C202.214 51.7614 202.358 52.0494 202.55 52.2894C202.742 52.5294 202.982 52.7334 203.27 52.9014C203.582 53.0694 203.942 53.1894 204.35 53.2614V53.7294C204.278 53.7294 204.206 53.7294 204.134 53.7294C204.062 53.7294 203.99 53.7294 203.918 53.7294C203.822 53.7054 203.738 53.6934 203.666 53.6934C203.594 53.6934 203.522 53.6934 203.45 53.6934C203.282 53.6934 203.114 53.6934 202.946 53.6934C202.802 53.6934 202.658 53.6934 202.514 53.6934C202.49 53.6934 202.454 53.6934 202.406 53.6934C202.382 53.6934 202.358 53.6934 202.334 53.6934C202.286 53.6694 202.25 53.6574 202.226 53.6574C202.202 53.6574 202.178 53.6574 202.154 53.6574C202.082 53.6574 202.01 53.6574 201.938 53.6574C201.89 53.6574 201.842 53.6574 201.794 53.6574C201.578 53.6334 201.362 53.6094 201.146 53.5854C200.93 53.5854 200.726 53.5854 200.534 53.5854C200.318 53.5854 200.114 53.5854 199.922 53.5854C199.73 53.5854 199.538 53.5854 199.346 53.5854C199.178 53.5854 198.986 53.5854 198.77 53.5854C198.578 53.5854 198.386 53.5854 198.194 53.5854C198.002 53.5854 197.798 53.5854 197.582 53.5854C197.39 53.6094 197.198 53.6334 197.006 53.6574C196.934 53.6574 196.862 53.6574 196.79 53.6574C196.718 53.6574 196.646 53.6694 196.574 53.6934C196.478 53.6934 196.394 53.6934 196.322 53.6934C196.25 53.6934 196.178 53.6934 196.106 53.6934C196.034 53.6934 195.962 53.6934 195.89 53.6934C195.818 53.6934 195.746 53.7054 195.674 53.7294C195.602 53.7294 195.53 53.7294 195.458 53.7294C195.386 53.7294 195.314 53.7294 195.242 53.7294C195.17 53.7294 195.098 53.7294 195.026 53.7294C194.978 53.7294 194.93 53.7294 194.882 53.7294C194.81 53.7294 194.738 53.7294 194.666 53.7294C194.618 53.7294 194.57 53.7294 194.522 53.7294V53.1894C194.834 53.1894 195.11 53.1174 195.35 52.9734C195.614 52.8294 195.854 52.6374 196.07 52.3974C196.286 52.1334 196.442 51.8334 196.538 51.4974C196.658 51.1614 196.718 50.7654 196.718 50.3094V41.7414C196.718 41.7174 196.718 41.6814 196.718 41.6334C196.718 41.5854 196.718 41.5374 196.718 41.4894C196.694 41.4174 196.682 41.3574 196.682 41.3094C196.682 41.2614 196.682 41.2014 196.682 41.1294C196.682 41.0814 196.682 41.0334 196.682 40.9854C196.682 40.9134 196.682 40.8414 196.682 40.7694C196.658 40.7214 196.646 40.6734 196.646 40.6254C196.646 40.5534 196.646 40.4814 196.646 40.4094C196.574 39.9294 196.466 39.4614 196.322 39.0054C196.178 38.5494 195.974 38.1054 195.71 37.6734C195.47 37.2654 195.134 36.9534 194.702 36.7374C194.294 36.5214 193.802 36.4134 193.226 36.4134C192.41 36.4134 191.714 36.6054 191.138 36.9894C190.586 37.3494 190.166 37.9014 189.878 38.6454C189.59 39.3894 189.374 40.2534 189.23 41.2374C189.086 42.1974 189.014 43.2774 189.014 44.4774V47.5734C189.014 48.3414 189.05 49.0494 189.122 49.6974C189.218 50.3214 189.35 50.8854 189.518 51.3894C189.686 51.8934 189.926 52.3014 190.238 52.6134C190.574 52.9254 190.982 53.1414 191.462 53.2614V53.7294C191.39 53.7294 191.318 53.7294 191.246 53.7294C191.174 53.7294 191.102 53.7294 191.03 53.7294C190.958 53.7054 190.886 53.6934 190.814 53.6934C190.742 53.6934 190.67 53.6934 190.598 53.6934C190.526 53.6934 190.454 53.6934 190.382 53.6934C190.31 53.6934 190.25 53.6934 190.202 53.6934C190.13 53.6934 190.058 53.6934 189.986 53.6934C189.914 53.6934 189.842 53.6934 189.77 53.6934C189.746 53.6934 189.71 53.6934 189.662 53.6934C189.638 53.6934 189.602 53.6934 189.554 53.6934C189.53 53.6694 189.494 53.6574 189.446 53.6574C189.422 53.6574 189.386 53.6574 189.338 53.6574C189.266 53.6574 189.194 53.6574 189.122 53.6574C189.05 53.6574 188.978 53.6574 188.906 53.6574C188.69 53.6334 188.474 53.6094 188.258 53.5854C188.042 53.5854 187.826 53.5854 187.61 53.5854C187.394 53.5854 187.178 53.5854 186.962 53.5854C186.77 53.5854 186.578 53.5854 186.386 53.5854C186.29 53.5854 186.182 53.5854 186.062 53.5854C185.966 53.5854 185.87 53.5854 185.774 53.5854C185.654 53.5854 185.546 53.5854 185.45 53.5854C185.354 53.5854 185.246 53.5854 185.126 53.5854C185.03 53.5854 184.922 53.5854 184.802 53.5854C184.706 53.5854 184.61 53.5974 184.514 53.6214C184.394 53.6214 184.286 53.6214 184.19 53.6214C184.094 53.6454 183.986 53.6574 183.866 53.6574C183.794 53.6574 183.722 53.6574 183.65 53.6574C183.578 53.6574 183.506 53.6574 183.434 53.6574C183.41 53.6574 183.374 53.6574 183.326 53.6574C183.302 53.6574 183.266 53.6694 183.218 53.6934C183.194 53.6934 183.158 53.6934 183.11 53.6934C183.086 53.6934 183.05 53.6934 183.002 53.6934C182.858 53.6934 182.714 53.6934 182.57 53.6934C182.426 53.6934 182.282 53.6934 182.138 53.6934C182.066 53.6934 181.994 53.6934 181.922 53.6934C181.85 53.6934 181.79 53.7054 181.742 53.7294C181.67 53.7294 181.598 53.7294 181.526 53.7294C181.454 53.7294 181.382 53.7294 181.31 53.7294V53.1894C181.79 53.0934 182.186 52.9014 182.498 52.6134C182.834 52.3014 183.086 51.8934 183.254 51.3894C183.422 50.8854 183.542 50.3214 183.614 49.6974C183.71 49.0734 183.758 48.3894 183.758 47.6454V31.9494C183.758 31.5654 183.71 31.2294 183.614 30.9414C183.542 30.6534 183.434 30.4134 183.29 30.2214C183.122 30.0294 182.906 29.8614 182.642 29.7174C182.378 29.5734 182.054 29.4534 181.67 29.3574V28.7454C182.294 28.7214 182.906 28.6734 183.506 28.6014C184.13 28.5054 184.742 28.4094 185.342 28.3134C185.966 28.1934 186.578 28.0734 187.178 27.9534C187.802 27.8334 188.414 27.7014 189.014 27.5574V27.4854ZM213.746 34.8654V49.2654C213.746 49.8414 213.782 50.3574 213.854 50.8134C213.95 51.2694 214.082 51.6654 214.25 52.0014C214.418 52.3614 214.658 52.6494 214.97 52.8654C215.306 53.0574 215.714 53.1894 216.194 53.2614V53.7294C216.122 53.7294 216.05 53.7294 215.978 53.7294C215.906 53.7294 215.834 53.7294 215.762 53.7294C215.69 53.7054 215.618 53.6934 215.546 53.6934C215.474 53.6934 215.402 53.6934 215.33 53.6934C215.258 53.6934 215.186 53.6934 215.114 53.6934C215.042 53.6934 214.982 53.6934 214.934 53.6934C214.862 53.6934 214.79 53.6934 214.718 53.6934C214.646 53.6934 214.574 53.6934 214.502 53.6934C214.478 53.6934 214.442 53.6934 214.394 53.6934C214.37 53.6934 214.334 53.6934 214.286 53.6934C214.262 53.6694 214.226 53.6574 214.178 53.6574C214.154 53.6574 214.118 53.6574 214.07 53.6574C213.998 53.6574 213.926 53.6574 213.854 53.6574C213.782 53.6574 213.71 53.6574 213.638 53.6574C213.422 53.6334 213.206 53.6094 212.99 53.5854C212.774 53.5854 212.558 53.5854 212.342 53.5854C212.126 53.5854 211.91 53.5854 211.694 53.5854C211.502 53.5854 211.31 53.5854 211.118 53.5854C211.022 53.5854 210.914 53.5854 210.794 53.5854C210.698 53.5854 210.602 53.5854 210.506 53.5854C210.386 53.5854 210.278 53.5854 210.182 53.5854C210.086 53.5854 209.978 53.5854 209.858 53.5854C209.762 53.5854 209.654 53.5854 209.534 53.5854C209.438 53.5854 209.342 53.5974 209.246 53.6214C209.126 53.6214 209.018 53.6214 208.922 53.6214C208.826 53.6454 208.718 53.6574 208.598 53.6574C208.526 53.6574 208.454 53.6574 208.382 53.6574C208.31 53.6574 208.238 53.6574 208.166 53.6574C208.142 53.6574 208.106 53.6574 208.058 53.6574C208.034 53.6574 207.998 53.6694 207.95 53.6934C207.926 53.6934 207.89 53.6934 207.842 53.6934C207.818 53.6934 207.782 53.6934 207.734 53.6934C207.59 53.6934 207.446 53.6934 207.302 53.6934C207.158 53.6934 207.014 53.6934 206.87 53.6934C206.798 53.6934 206.726 53.6934 206.654 53.6934C206.582 53.6934 206.522 53.7054 206.474 53.7294C206.402 53.7294 206.33 53.7294 206.258 53.7294C206.186 53.7294 206.114 53.7294 206.042 53.7294V53.1894C206.522 53.1654 206.918 53.0574 207.23 52.8654C207.566 52.6494 207.818 52.3614 207.986 52.0014C208.154 51.6654 208.274 51.2694 208.346 50.8134C208.442 50.3574 208.49 49.8654 208.49 49.3374V38.5014C208.49 38.2614 208.442 38.0334 208.346 37.8174C208.25 37.5774 208.106 37.3734 207.914 37.2054C207.746 37.0134 207.542 36.8574 207.302 36.7374C207.062 36.6174 206.81 36.5334 206.546 36.4854V35.8734C206.666 35.8974 206.786 35.9094 206.906 35.9094C207.026 35.9094 207.146 35.9094 207.266 35.9094C207.386 35.9094 207.506 35.9094 207.626 35.9094C207.746 35.8854 207.866 35.8614 207.986 35.8374C208.466 35.7894 208.934 35.7414 209.39 35.6934C209.87 35.6214 210.35 35.5494 210.83 35.4774C211.31 35.4054 211.79 35.3214 212.27 35.2254C212.75 35.1294 213.242 35.0334 213.746 34.9374V34.8654ZM211.01 27.4854C211.418 27.5334 211.778 27.6414 212.09 27.8094C212.426 27.9534 212.714 28.1694 212.954 28.4574C213.218 28.7454 213.41 29.0574 213.53 29.3934C213.674 29.7294 213.746 30.0894 213.746 30.4734C213.746 30.8574 213.674 31.2174 213.53 31.5534C213.41 31.8894 213.218 32.2014 212.954 32.4894C212.714 32.8014 212.426 33.0294 212.09 33.1734C211.778 33.3174 211.418 33.3894 211.01 33.3894C210.626 33.3894 210.266 33.3174 209.93 33.1734C209.594 33.0294 209.294 32.8014 209.03 32.4894C208.79 32.2014 208.598 31.8894 208.454 31.5534C208.334 31.2174 208.274 30.8574 208.274 30.4734C208.274 30.0894 208.334 29.7294 208.454 29.3934C208.598 29.0574 208.79 28.7454 209.03 28.4574C209.294 28.1694 209.594 27.9534 209.93 27.8094C210.266 27.6414 210.626 27.5574 211.01 27.5574V27.4854ZM237.362 36.6294L235.634 42.4254L235.058 42.2454C235.058 42.2214 235.058 42.1974 235.058 42.1734C235.058 42.1254 235.058 42.0774 235.058 42.0294C235.058 42.0054 235.058 41.9814 235.058 41.9574C235.058 41.9334 235.058 41.9094 235.058 41.8854C235.034 41.8614 235.022 41.8374 235.022 41.8134C235.022 41.7894 235.022 41.7654 235.022 41.7414C234.974 40.9734 234.818 40.2414 234.554 39.5454C234.314 38.8254 233.978 38.1414 233.546 37.4934C233.114 36.8454 232.574 36.3654 231.926 36.0534C231.278 35.7174 230.522 35.5494 229.658 35.5494C228.89 35.5494 228.218 35.7054 227.642 36.0174C227.066 36.3054 226.574 36.7374 226.166 37.3134C225.782 37.8894 225.458 38.5014 225.194 39.1494C224.93 39.7734 224.738 40.4334 224.618 41.1294C224.546 41.4174 224.486 41.7054 224.438 41.9934C224.414 42.2574 224.39 42.5214 224.366 42.7854C224.342 43.0494 224.318 43.3134 224.294 43.5774C224.294 43.8174 224.294 44.0574 224.294 44.2974C224.294 45.3534 224.402 46.3734 224.618 47.3574C224.834 48.3174 225.17 49.2294 225.626 50.0934C226.058 50.9574 226.682 51.6054 227.498 52.0374C228.314 52.4694 229.31 52.6854 230.486 52.6854C231.182 52.6854 231.842 52.5774 232.466 52.3614C233.09 52.1214 233.666 51.7734 234.194 51.3174C234.722 50.8614 235.166 50.3574 235.526 49.8054C235.91 49.2534 236.21 48.6534 236.426 48.0054L237.434 48.9054C237.026 49.9134 236.522 50.7654 235.922 51.4614C235.346 52.1334 234.674 52.6614 233.906 53.0454C233.138 53.4054 232.298 53.6694 231.386 53.8374C230.498 54.0294 229.55 54.1254 228.542 54.1254C227.15 54.1254 225.842 53.9094 224.618 53.4774C223.418 53.0214 222.326 52.3494 221.342 51.4614C220.358 50.5494 219.614 49.5054 219.11 48.3294C218.63 47.1294 218.39 45.7854 218.39 44.2974C218.39 42.7374 218.63 41.3574 219.11 40.1574C219.614 38.9334 220.37 37.8894 221.378 37.0254C222.386 36.1614 223.526 35.5134 224.798 35.0814C226.094 34.6254 227.522 34.3974 229.082 34.3974C229.802 34.3974 230.522 34.4574 231.242 34.5774C231.962 34.6974 232.658 34.8654 233.33 35.0814C234.026 35.2974 234.71 35.5374 235.382 35.8014C236.054 36.0654 236.714 36.3654 237.362 36.7014V36.6294ZM254.366 46.7454V35.0094C254.366 34.4574 254.33 33.9534 254.258 33.4974C254.186 33.0174 254.078 32.6214 253.934 32.3094C253.79 31.9734 253.574 31.7094 253.286 31.5174C252.998 31.3014 252.65 31.1454 252.242 31.0494V30.4014C252.482 30.4494 252.71 30.4854 252.926 30.5094C253.166 30.5094 253.406 30.5094 253.646 30.5094C253.766 30.5094 253.886 30.5094 254.006 30.5094C254.126 30.5094 254.234 30.5094 254.33 30.5094C254.45 30.5334 254.57 30.5454 254.69 30.5454C254.81 30.5454 254.918 30.5454 255.014 30.5454C255.134 30.5454 255.242 30.5574 255.338 30.5814C255.434 30.5814 255.542 30.5814 255.662 30.5814C255.758 30.6054 255.854 30.6174 255.95 30.6174C256.07 30.6174 256.178 30.6174 256.274 30.6174C256.394 30.6174 256.502 30.6174 256.598 30.6174C256.694 30.6174 256.802 30.6174 256.922 30.6174C257.018 30.6174 257.114 30.6174 257.21 30.6174C257.33 30.6174 257.438 30.6174 257.534 30.6174C258.59 30.6174 259.574 30.6174 260.486 30.6174C261.398 30.6174 262.25 30.6174 263.042 30.6174C263.81 30.6174 264.542 30.6174 265.238 30.6174C265.934 30.5934 266.582 30.5694 267.182 30.5454C267.494 30.5454 267.794 30.5454 268.082 30.5454C268.37 30.5454 268.646 30.5334 268.91 30.5094C269.174 30.5094 269.426 30.5094 269.666 30.5094C269.93 30.5094 270.182 30.5094 270.422 30.5094C270.662 30.5094 270.89 30.5094 271.106 30.5094C271.346 30.5094 271.574 30.4974 271.79 30.4734C272.03 30.4734 272.258 30.4734 272.474 30.4734C272.69 30.4734 272.906 30.4734 273.122 30.4734L274.814 36.7374H274.022C273.35 35.9694 272.63 35.2854 271.862 34.6854C271.118 34.0614 270.314 33.5334 269.45 33.1014C268.586 32.6694 267.71 32.3454 266.822 32.1294C265.934 31.8894 265.034 31.7694 264.122 31.7694L260.702 31.6974V40.8054H262.826C262.874 40.8294 262.91 40.8534 262.934 40.8774C262.958 40.8774 262.994 40.8774 263.042 40.8774C263.066 40.8774 263.09 40.8774 263.114 40.8774C263.162 40.8774 263.198 40.8774 263.222 40.8774C263.294 40.8774 263.366 40.8774 263.438 40.8774C263.51 40.8774 263.582 40.8774 263.654 40.8774C264.35 40.8294 265.022 40.7334 265.67 40.5894C266.342 40.4454 266.99 40.2414 267.614 39.9774C268.238 39.7134 268.766 39.3294 269.198 38.8254C269.654 38.3214 270.002 37.6974 270.242 36.9534L270.926 36.8814V45.8454H270.35C270.182 45.2214 269.87 44.6814 269.414 44.2254C268.982 43.7454 268.418 43.3494 267.722 43.0374C267.002 42.7254 266.234 42.4974 265.418 42.3534C264.602 42.1854 263.738 42.1014 262.826 42.1014L260.702 42.0294V47.2854C260.702 48.2214 260.774 49.0134 260.918 49.6614C261.062 50.3094 261.278 50.8254 261.566 51.2094C261.854 51.5934 262.286 51.8814 262.862 52.0734C263.462 52.2414 264.206 52.3254 265.094 52.3254C266.15 52.3254 267.17 52.1694 268.154 51.8574C269.138 51.5454 270.098 51.0774 271.034 50.4534C271.97 49.8294 272.834 49.1694 273.626 48.4734C274.442 47.7534 275.174 47.0214 275.822 46.2774C275.846 46.2294 275.87 46.1934 275.894 46.1694C275.918 46.1454 275.954 46.1094 276.002 46.0614C276.026 46.0374 276.05 46.0134 276.074 45.9894C276.122 45.9414 276.158 45.9054 276.182 45.8814C276.23 45.8094 276.278 45.7374 276.326 45.6654C276.398 45.5934 276.458 45.5214 276.506 45.4494L277.082 45.6294L274.454 53.7294C274.142 53.7294 273.83 53.7294 273.518 53.7294C273.206 53.7294 272.894 53.7294 272.582 53.7294C272.246 53.7054 271.922 53.6934 271.61 53.6934C271.298 53.6934 270.986 53.6934 270.674 53.6934C270.362 53.6934 270.038 53.6934 269.702 53.6934C269.39 53.6934 269.078 53.6934 268.766 53.6934C268.43 53.6694 268.094 53.6574 267.758 53.6574C267.422 53.6574 267.086 53.6574 266.75 53.6574C266.078 53.6334 265.382 53.6094 264.662 53.5854C263.942 53.5854 263.198 53.5854 262.43 53.5854C261.686 53.5854 260.894 53.5854 260.054 53.5854C259.238 53.5854 258.398 53.5854 257.534 53.5854C257.414 53.5854 257.294 53.5854 257.174 53.5854C257.054 53.5854 256.934 53.5854 256.814 53.5854C256.67 53.5854 256.538 53.5854 256.418 53.5854C256.298 53.5854 256.178 53.5854 256.058 53.5854C255.938 53.5854 255.818 53.5854 255.698 53.5854C255.578 53.5854 255.458 53.5974 255.338 53.6214C255.194 53.6214 255.062 53.6214 254.942 53.6214C254.822 53.6454 254.702 53.6574 254.582 53.6574C254.438 53.6574 254.294 53.6574 254.15 53.6574C254.03 53.6574 253.91 53.6694 253.79 53.6934C253.646 53.6934 253.502 53.6934 253.358 53.6934C253.238 53.6934 253.118 53.6934 252.998 53.6934C252.878 53.6934 252.746 53.6934 252.602 53.6934C252.482 53.6934 252.35 53.7054 252.206 53.7294C252.086 53.7294 251.954 53.7294 251.81 53.7294C251.69 53.7294 251.558 53.7294 251.414 53.7294V53.0094C252.11 53.0094 252.662 52.8534 253.07 52.5414C253.502 52.2054 253.79 51.7254 253.934 51.1014C254.078 50.4774 254.186 49.8174 254.258 49.1214C254.33 48.4014 254.366 47.6334 254.366 46.8174V46.7454ZM292.93 34.3254L290.77 40.5894C290.698 40.5414 290.626 40.4814 290.554 40.4094C290.482 40.3374 290.41 40.2654 290.338 40.1934C290.242 40.1214 290.158 40.0614 290.086 40.0134C290.014 39.9414 289.942 39.8694 289.87 39.7974C289.702 39.6774 289.522 39.5814 289.33 39.5094C289.138 39.4374 288.922 39.4014 288.682 39.4014C288.178 39.4014 287.746 39.5334 287.386 39.7974C287.05 40.0614 286.774 40.4574 286.558 40.9854C286.342 41.5134 286.174 42.0774 286.054 42.6774C285.958 43.2534 285.898 43.8534 285.874 44.4774C285.874 44.5014 285.874 44.5374 285.874 44.5854C285.874 44.6094 285.874 44.6454 285.874 44.6934C285.874 44.7174 285.874 44.7414 285.874 44.7654C285.874 44.7894 285.874 44.8134 285.874 44.8374C285.874 44.8374 285.874 44.8494 285.874 44.8734V47.5734C285.874 48.3414 285.91 49.0494 285.982 49.6974C286.078 50.3214 286.21 50.8854 286.378 51.3894C286.546 51.8934 286.786 52.3014 287.098 52.6134C287.434 52.9254 287.842 53.1414 288.322 53.2614V53.7294C288.25 53.7294 288.178 53.7294 288.106 53.7294C288.034 53.7294 287.962 53.7294 287.89 53.7294C287.818 53.7054 287.746 53.6934 287.674 53.6934C287.602 53.6934 287.53 53.6934 287.458 53.6934C287.386 53.6934 287.314 53.6934 287.242 53.6934C287.17 53.6934 287.11 53.6934 287.062 53.6934C286.99 53.6934 286.918 53.6934 286.846 53.6934C286.774 53.6934 286.702 53.6934 286.63 53.6934C286.606 53.6934 286.57 53.6934 286.522 53.6934C286.498 53.6934 286.462 53.6934 286.414 53.6934C286.39 53.6694 286.354 53.6574 286.306 53.6574C286.282 53.6574 286.246 53.6574 286.198 53.6574C286.126 53.6574 286.054 53.6574 285.982 53.6574C285.91 53.6574 285.838 53.6574 285.766 53.6574C285.55 53.6334 285.334 53.6094 285.118 53.5854C284.902 53.5854 284.686 53.5854 284.47 53.5854C284.254 53.5854 284.038 53.5854 283.822 53.5854C283.63 53.5854 283.438 53.5854 283.246 53.5854C283.15 53.5854 283.042 53.5854 282.922 53.5854C282.826 53.5854 282.73 53.5854 282.634 53.5854C282.514 53.5854 282.406 53.5854 282.31 53.5854C282.214 53.5854 282.106 53.5854 281.986 53.5854C281.89 53.5854 281.782 53.5854 281.662 53.5854C281.566 53.5854 281.47 53.5974 281.374 53.6214C281.254 53.6214 281.146 53.6214 281.05 53.6214C280.954 53.6454 280.846 53.6574 280.726 53.6574C280.654 53.6574 280.582 53.6574 280.51 53.6574C280.438 53.6574 280.366 53.6574 280.294 53.6574C280.27 53.6574 280.234 53.6574 280.186 53.6574C280.162 53.6574 280.126 53.6694 280.078 53.6934C280.054 53.6934 280.018 53.6934 279.97 53.6934C279.946 53.6934 279.91 53.6934 279.862 53.6934C279.718 53.6934 279.574 53.6934 279.43 53.6934C279.286 53.6934 279.142 53.6934 278.998 53.6934C278.926 53.6934 278.854 53.6934 278.782 53.6934C278.71 53.6934 278.65 53.7054 278.602 53.7294C278.53 53.7294 278.458 53.7294 278.386 53.7294C278.314 53.7294 278.242 53.7294 278.17 53.7294V53.1894C278.65 53.0934 279.046 52.9014 279.358 52.6134C279.694 52.3014 279.946 51.8934 280.114 51.3894C280.282 50.8854 280.402 50.3214 280.474 49.6974C280.57 49.0734 280.618 48.3894 280.618 47.6454V39.9054C280.618 39.3534 280.558 38.8734 280.438 38.4654C280.342 38.0574 280.186 37.7334 279.97 37.4934C279.754 37.2294 279.526 37.0254 279.286 36.8814C279.07 36.7134 278.83 36.5934 278.566 36.5214C278.542 36.5214 278.518 36.5214 278.494 36.5214C278.494 36.5214 278.482 36.5214 278.458 36.5214C278.458 36.5214 278.446 36.5214 278.422 36.5214C278.422 36.5214 278.422 36.5094 278.422 36.4854C278.398 36.4854 278.386 36.4854 278.386 36.4854V35.8734C278.458 35.9214 278.53 35.9454 278.602 35.9454C278.674 35.9454 278.746 35.9334 278.818 35.9094C278.866 35.9094 278.902 35.9094 278.926 35.9094C278.974 35.9094 279.022 35.8974 279.07 35.8734C279.094 35.8734 279.13 35.8734 279.178 35.8734C279.226 35.8734 279.262 35.8734 279.286 35.8734C279.79 35.8254 280.306 35.7774 280.834 35.7294C281.362 35.6574 281.89 35.5854 282.418 35.5134C282.946 35.4414 283.474 35.3574 284.002 35.2614C284.554 35.1414 285.118 35.0334 285.694 34.9374C285.694 35.0094 285.694 35.0814 285.694 35.1534C285.694 35.2014 285.694 35.2494 285.694 35.2974C285.67 35.3694 285.658 35.4414 285.658 35.5134C285.658 35.5614 285.658 35.6094 285.658 35.6574C285.658 35.7774 285.658 35.9094 285.658 36.0534C285.658 36.1734 285.658 36.2934 285.658 36.4134C285.658 36.4854 285.658 36.5574 285.658 36.6294C285.658 36.7014 285.658 36.7614 285.658 36.8094C285.634 36.8814 285.622 36.9534 285.622 37.0254C285.622 37.0734 285.622 37.1334 285.622 37.2054C285.622 37.3494 285.622 37.4934 285.622 37.6374C285.622 37.7574 285.622 37.8774 285.622 37.9974V40.0854H285.694C285.742 40.0134 285.778 39.9294 285.802 39.8334C285.85 39.7134 285.886 39.6054 285.91 39.5094C285.934 39.4614 285.946 39.4134 285.946 39.3654C285.97 39.2934 285.994 39.2214 286.018 39.1494C286.042 39.1014 286.066 39.0534 286.09 39.0054C286.114 38.9334 286.138 38.8734 286.162 38.8254C286.402 38.2734 286.69 37.7454 287.026 37.2414C287.362 36.7374 287.746 36.2574 288.178 35.8014C288.61 35.3214 289.09 34.9734 289.618 34.7574C290.146 34.5174 290.71 34.3974 291.31 34.3974L292.93 34.3254ZM307.934 53.5854L307.142 50.5974C306.806 51.1734 306.434 51.6774 306.026 52.1094C305.642 52.5414 305.222 52.9134 304.766 53.2254C304.31 53.5134 303.806 53.7294 303.254 53.8734C302.702 54.0414 302.09 54.1254 301.418 54.1254C301.346 54.1254 301.274 54.1254 301.202 54.1254C301.154 54.1254 301.106 54.1254 301.058 54.1254C301.01 54.1254 300.95 54.1254 300.878 54.1254C300.83 54.1254 300.782 54.1254 300.734 54.1254C299.87 54.0774 299.042 53.9454 298.25 53.7294C297.458 53.5134 296.702 53.2014 295.982 52.7934C295.262 52.3854 294.722 51.8334 294.362 51.1374C294.002 50.4414 293.822 49.6014 293.822 48.6174C293.822 47.6094 294.05 46.7334 294.506 45.9894C294.962 45.2454 295.646 44.6334 296.558 44.1534C297.47 43.6734 298.418 43.2774 299.402 42.9654C300.41 42.6534 301.466 42.4254 302.57 42.2814C302.858 42.2334 303.146 42.2094 303.434 42.2094C303.722 42.1854 304.01 42.1614 304.298 42.1374C304.442 42.1374 304.586 42.1374 304.73 42.1374C304.874 42.1134 305.018 42.1014 305.162 42.1014C305.282 42.0774 305.414 42.0654 305.558 42.0654C305.702 42.0654 305.846 42.0654 305.99 42.0654L306.782 41.9934V40.4094C306.782 39.7134 306.686 39.0774 306.494 38.5014C306.302 37.9014 306.026 37.3734 305.666 36.9174C305.282 36.4614 304.826 36.1254 304.298 35.9094C303.794 35.6694 303.218 35.5494 302.57 35.5494C301.826 35.5734 301.13 35.7294 300.482 36.0174C299.858 36.3054 299.306 36.7254 298.826 37.2774C298.346 37.8294 297.926 38.4774 297.566 39.2214C297.206 39.9654 296.906 40.7934 296.666 41.7054L296.126 41.7774L294.614 36.0894C294.782 36.0654 294.95 36.0414 295.118 36.0174C295.286 35.9694 295.454 35.9214 295.622 35.8734C295.766 35.8254 295.922 35.7774 296.09 35.7294C296.258 35.6814 296.426 35.6334 296.594 35.5854C296.93 35.4894 297.254 35.4054 297.566 35.3334C297.902 35.2374 298.226 35.1414 298.538 35.0454C298.946 34.9494 299.354 34.8654 299.762 34.7934C300.17 34.7214 300.578 34.6494 300.986 34.5774C301.394 34.5294 301.802 34.4934 302.21 34.4694C302.618 34.4214 303.038 34.3974 303.47 34.3974C303.494 34.3974 303.506 34.3974 303.506 34.3974C303.53 34.3974 303.554 34.3974 303.578 34.3974C303.602 34.3974 303.626 34.3974 303.65 34.3974C303.674 34.3974 303.698 34.3974 303.722 34.3974C303.746 34.3974 303.758 34.3974 303.758 34.3974C303.782 34.3974 303.806 34.3974 303.83 34.3974C303.854 34.3974 303.878 34.3974 303.902 34.3974C303.926 34.3974 303.95 34.3974 303.974 34.3974C305.174 34.3974 306.266 34.5534 307.25 34.8654C308.234 35.1534 309.098 35.5854 309.842 36.1614C310.586 36.7614 311.138 37.5894 311.498 38.6454C311.882 39.7014 312.074 40.9974 312.074 42.5334V49.6614C312.074 50.1174 312.098 50.5254 312.146 50.8854C312.218 51.2454 312.326 51.5814 312.47 51.8934C312.614 52.2054 312.806 52.4694 313.046 52.6854C313.31 52.8774 313.634 53.0214 314.018 53.1174V53.5854H307.934ZM306.818 46.2774V43.1454H306.17C305.282 43.1934 304.454 43.3374 303.686 43.5774C302.942 43.7934 302.258 44.1174 301.634 44.5494C300.986 44.9814 300.506 45.5574 300.194 46.2774C299.882 46.9974 299.726 47.8494 299.726 48.8334C299.726 48.8574 299.726 48.8814 299.726 48.9054C299.726 48.9294 299.726 48.9414 299.726 48.9414C299.726 49.3974 299.798 49.8414 299.942 50.2734C300.086 50.7054 300.29 51.1254 300.554 51.5334C300.818 51.9174 301.142 52.2054 301.526 52.3974C301.934 52.5894 302.39 52.6854 302.894 52.6854C303.446 52.6854 303.926 52.5894 304.334 52.3974C304.766 52.1814 305.126 51.8574 305.414 51.4254C305.702 51.0174 305.942 50.5854 306.134 50.1294C306.35 49.6494 306.506 49.1574 306.602 48.6534C306.65 48.4614 306.674 48.2694 306.674 48.0774C306.698 47.8614 306.722 47.6574 306.746 47.4654C306.77 47.2734 306.782 47.0814 306.782 46.8894C306.806 46.6974 306.818 46.5174 306.818 46.3494V46.2774Z" fill="black"/>
<path d="M210.068 68.1869V69.6749H205.348V72.9549H209.028V74.4429H205.348V79.3069H203.524V68.1869H210.068ZM218.463 77.0349H213.807L213.007 79.3069H211.103L215.087 68.1709H217.199L221.183 79.3069H219.263L218.463 77.0349ZM217.951 75.5469L216.143 70.3789L214.319 75.5469H217.951ZM231.523 81.3229L229.571 79.2109C229.091 79.3496 228.563 79.4189 227.987 79.4189C226.952 79.4189 225.998 79.1789 225.123 78.6989C224.259 78.2082 223.571 77.5309 223.059 76.6669C222.558 75.7922 222.307 74.8109 222.307 73.7229C222.307 72.6349 222.558 71.6589 223.059 70.7949C223.571 69.9309 224.259 69.2589 225.123 68.7789C225.998 68.2882 226.952 68.0429 227.987 68.0429C229.032 68.0429 229.987 68.2882 230.851 68.7789C231.726 69.2589 232.414 69.9309 232.915 70.7949C233.416 71.6589 233.667 72.6349 233.667 73.7229C233.667 74.7469 233.443 75.6749 232.995 76.5069C232.558 77.3282 231.95 77.9896 231.171 78.4909L233.843 81.3229H231.523ZM224.179 73.7229C224.179 74.5442 224.339 75.2696 224.659 75.8989C224.99 76.5176 225.443 76.9976 226.019 77.3389C226.595 77.6696 227.251 77.8349 227.987 77.8349C228.723 77.8349 229.379 77.6696 229.955 77.3389C230.531 76.9976 230.979 76.5176 231.299 75.8989C231.63 75.2696 231.795 74.5442 231.795 73.7229C231.795 72.9016 231.63 72.1816 231.299 71.5629C230.979 70.9442 230.531 70.4696 229.955 70.1389C229.379 69.8082 228.723 69.6429 227.987 69.6429C227.251 69.6429 226.595 69.8082 226.019 70.1389C225.443 70.4696 224.99 70.9442 224.659 71.5629C224.339 72.1816 224.179 72.9016 224.179 73.7229ZM239.057 73.7229C239.057 72.6349 239.308 71.6589 239.809 70.7949C240.321 69.9309 241.009 69.2589 241.873 68.7789C242.748 68.2882 243.702 68.0429 244.737 68.0429C245.921 68.0429 246.972 68.3362 247.889 68.9229C248.817 69.4989 249.489 70.3202 249.905 71.3869H247.713C247.425 70.8002 247.025 70.3629 246.513 70.0749C246.001 69.7869 245.409 69.6429 244.737 69.6429C244.001 69.6429 243.345 69.8082 242.769 70.1389C242.193 70.4696 241.74 70.9442 241.409 71.5629C241.089 72.1816 240.929 72.9016 240.929 73.7229C240.929 74.5442 241.089 75.2642 241.409 75.8829C241.74 76.5016 242.193 76.9816 242.769 77.3229C243.345 77.6536 244.001 77.8189 244.737 77.8189C245.409 77.8189 246.001 77.6749 246.513 77.3869C247.025 77.0989 247.425 76.6616 247.713 76.0749H249.905C249.489 77.1416 248.817 77.9629 247.889 78.5389C246.972 79.1149 245.921 79.4029 244.737 79.4029C243.692 79.4029 242.737 79.1629 241.873 78.6829C241.009 78.1922 240.321 77.5149 239.809 76.6509C239.308 75.7869 239.057 74.8109 239.057 73.7229ZM256.6 70.3469C257.272 70.3469 257.869 70.4909 258.392 70.7789C258.925 71.0669 259.341 71.4936 259.64 72.0589C259.949 72.6242 260.104 73.3069 260.104 74.1069V79.3069H258.296V74.3789C258.296 73.5896 258.099 72.9869 257.704 72.5709C257.309 72.1442 256.771 71.9309 256.088 71.9309C255.405 71.9309 254.861 72.1442 254.456 72.5709C254.061 72.9869 253.864 73.5896 253.864 74.3789V79.3069H252.04V67.4669H253.864V71.5149C254.173 71.1416 254.563 70.8536 255.032 70.6509C255.512 70.4482 256.035 70.3469 256.6 70.3469ZM261.822 74.8589C261.822 73.9736 262.004 73.1896 262.366 72.5069C262.74 71.8242 263.241 71.2962 263.87 70.9229C264.51 70.5389 265.214 70.3469 265.982 70.3469C266.676 70.3469 267.278 70.4856 267.79 70.7629C268.313 71.0296 268.729 71.3656 269.038 71.7709V70.4909H270.878V79.3069H269.038V77.9949C268.729 78.4109 268.308 78.7576 267.774 79.0349C267.241 79.3122 266.633 79.4509 265.95 79.4509C265.193 79.4509 264.5 79.2589 263.87 78.8749C263.241 78.4802 262.74 77.9362 262.366 77.2429C262.004 76.5389 261.822 75.7442 261.822 74.8589ZM269.038 74.8909C269.038 74.2829 268.91 73.7549 268.654 73.3069C268.409 72.8589 268.084 72.5176 267.678 72.2829C267.273 72.0482 266.836 71.9309 266.366 71.9309C265.897 71.9309 265.46 72.0482 265.054 72.2829C264.649 72.5069 264.318 72.8429 264.062 73.2909C263.817 73.7282 263.694 74.2509 263.694 74.8589C263.694 75.4669 263.817 76.0002 264.062 76.4589C264.318 76.9176 264.649 77.2696 265.054 77.5149C265.47 77.7496 265.908 77.8669 266.366 77.8669C266.836 77.8669 267.273 77.7496 267.678 77.5149C268.084 77.2802 268.409 76.9389 268.654 76.4909C268.91 76.0322 269.038 75.4989 269.038 74.8909ZM275.402 71.9789V76.8589C275.402 77.1896 275.477 77.4296 275.626 77.5789C275.786 77.7176 276.053 77.7869 276.426 77.7869H277.546V79.3069H276.106C275.285 79.3069 274.656 79.1149 274.218 78.7309C273.781 78.3469 273.562 77.7229 273.562 76.8589V71.9789H272.522V70.4909H273.562V68.2989H275.402V70.4909H277.546V71.9789H275.402ZM285.208 71.8029C285.517 71.3762 285.938 71.0296 286.472 70.7629C287.016 70.4856 287.618 70.3469 288.28 70.3469C289.058 70.3469 289.762 70.5336 290.392 70.9069C291.021 71.2802 291.517 71.8136 291.88 72.5069C292.242 73.1896 292.424 73.9736 292.424 74.8589C292.424 75.7442 292.242 76.5389 291.88 77.2429C291.517 77.9362 291.016 78.4802 290.376 78.8749C289.746 79.2589 289.048 79.4509 288.28 79.4509C287.597 79.4509 286.989 79.3176 286.456 79.0509C285.933 78.7842 285.517 78.4429 285.208 78.0269V79.3069H283.384V67.4669H285.208V71.8029ZM290.568 74.8589C290.568 74.2509 290.44 73.7282 290.184 73.2909C289.938 72.8429 289.608 72.5069 289.192 72.2829C288.786 72.0482 288.349 71.9309 287.88 71.9309C287.421 71.9309 286.984 72.0482 286.568 72.2829C286.162 72.5176 285.832 72.8589 285.576 73.3069C285.33 73.7549 285.208 74.2829 285.208 74.8909C285.208 75.4989 285.33 76.0322 285.576 76.4909C285.832 76.9389 286.162 77.2802 286.568 77.5149C286.984 77.7496 287.421 77.8669 287.88 77.8669C288.349 77.8669 288.786 77.7496 289.192 77.5149C289.608 77.2696 289.938 76.9176 290.184 76.4589C290.44 76.0002 290.568 75.4669 290.568 74.8589ZM298.051 79.4509C297.219 79.4509 296.467 79.2642 295.795 78.8909C295.123 78.5069 294.595 77.9736 294.211 77.2909C293.827 76.5976 293.635 75.7976 293.635 74.8909C293.635 73.9949 293.833 73.2002 294.227 72.5069C294.622 71.8136 295.161 71.2802 295.843 70.9069C296.526 70.5336 297.289 70.3469 298.131 70.3469C298.974 70.3469 299.737 70.5336 300.419 70.9069C301.102 71.2802 301.641 71.8136 302.035 72.5069C302.43 73.2002 302.627 73.9949 302.627 74.8909C302.627 75.7869 302.425 76.5816 302.019 77.2749C301.614 77.9682 301.059 78.5069 300.355 78.8909C299.662 79.2642 298.894 79.4509 298.051 79.4509ZM298.051 77.8669C298.521 77.8669 298.958 77.7549 299.363 77.5309C299.779 77.3069 300.115 76.9709 300.371 76.5229C300.627 76.0749 300.755 75.5309 300.755 74.8909C300.755 74.2509 300.633 73.7122 300.387 73.2749C300.142 72.8269 299.817 72.4909 299.411 72.2669C299.006 72.0429 298.569 71.9309 298.099 71.9309C297.63 71.9309 297.193 72.0429 296.787 72.2669C296.393 72.4909 296.078 72.8269 295.843 73.2749C295.609 73.7122 295.491 74.2509 295.491 74.8909C295.491 75.8402 295.731 76.5762 296.211 77.0989C296.702 77.6109 297.315 77.8669 298.051 77.8669ZM306.558 71.9789V76.8589C306.558 77.1896 306.633 77.4296 306.782 77.5789C306.942 77.7176 307.209 77.7869 307.582 77.7869H308.702V79.3069H307.262C306.441 79.3069 305.812 79.1149 305.374 78.7309C304.937 78.3469 304.718 77.7229 304.718 76.8589V71.9789H303.678V70.4909H304.718V68.2989H306.558V70.4909H308.702V71.9789H306.558Z" fill="black"/>
</svg>
